<?xml version="1.0" standalone="no"?><!DOCTYPE svg PUBLIC "-//W3C//DTD SVG 1.1//EN" "http://www.w3.org/Graphics/SVG/1.1/DTD/svg11.dtd"><svg t="1688471472347" class="icon" viewBox="0 0 1024 1024" version="1.1" xmlns="http://www.w3.org/2000/svg" p-id="7239" xmlns:xlink="http://www.w3.org/1999/xlink" width="200" height="200"><path d="M900.864 919.488c-9.408 0-18.112-6.656-22.656-17.216-98.112-224.384-235.968-250.88-418.56-252.928v210.752c0 13.376-5.952 25.408-15.36 30.848-9.28 5.568-20.288 3.392-27.904-5.44l-312.576-356.48a40.96 40.96 0 0 1-0.64-50.304l312.512-382.08c7.488-9.216 18.688-11.776 28.224-6.336 9.6 5.568 15.744 17.792 15.68 31.232v179.072c81.728 5.312 156.288 35.84 221.824 90.88 57.6 48.32 108.288 115.52 150.4 199.68 71.04 141.76 93.568 281.856 94.528 287.68 2.56 16.192-4.352 32.384-16.384 38.528a21.312 21.312 0 0 1-9.088 2.112zM159.744 502.528l247.744 282.624V615.168c0-18.752 11.648-33.984 26.112-33.984 111.232 0 201.408 7.68 279.616 44.736 40.192 18.688 77.44 46.4 110.08 81.792a891.584 891.584 0 0 0-35.84-81.28C700.8 454.72 581.76 367.744 433.536 367.744c-14.528-0.192-26.24-15.36-26.048-33.92V199.808l-247.68 302.72z" p-id="7240"></path></svg>