<svg xmlns="http://www.w3.org/2000/svg" xmlns:xlink="http://www.w3.org/1999/xlink" fill="none" version="1.1" width="20" height="20" viewBox="0 0 20 20"><g><g></g><g><path d="M15.9587078125,17.37339609375L15.9592078125,17.373896093749998Q16.0999078125,17.51459609375,16.2836078125,17.590696093749997Q16.4674078125,17.66679609375,16.6663078125,17.66679609375Q16.8652078125,17.66679609375,17.0490078125,17.590696093749997Q17.2328078125,17.51459609375,17.373407812499998,17.373896093749998Q17.5141078125,17.23329609375,17.590207812499997,17.04949609375Q17.6663078125,16.86569609375,17.6663078125,16.66679609375Q17.6663078125,16.46789609375,17.590207812499997,16.28409609375Q17.5141078125,16.10039609375,17.373407812499998,15.95969609375L4.0401148125,2.62638909375Q3.8994628125,2.48573709375,3.7156908125,2.40961609375Q3.5319198125,2.33349609375,3.3330078125,2.33349609375Q3.1340958125,2.33349609375,2.9503248125,2.40961609375Q2.7665528125,2.48573709375,2.6259008125,2.62638909375Q2.4852488125,2.76704109375,2.4091278125,2.95081309375Q2.3330078125,3.13458409375,2.3330078125,3.33349609375Q2.3330078125,3.53240809375,2.4091278125,3.71617909375Q2.4852488125,3.89995109375,2.6259008125,4.04060309375L15.9587078125,17.37339609375Z" fill-rule="evenodd" fill="#333333" fill-opacity="1"/></g><g><path d="M17.373107812500002,4.04097809375L17.373407812499998,4.04060309375Q17.5141078125,3.89995109375,17.590207812499997,3.71617909375Q17.6663078125,3.53240809375,17.6663078125,3.33349609375Q17.6663078125,3.13458409375,17.590207812499997,2.95081309375Q17.5141078125,2.76704109375,17.373407812499998,2.62638909375L17.3729078125,2.6258170937500003Q17.368907812499998,2.62181609375,17.3648078125,2.61786109375L17.3642078125,2.6172960937500003Q17.224207812499998,2.48082209375,17.0430078125,2.40715909375Q16.8619078125,2.33349609375,16.6663078125,2.33349609375Q16.4674078125,2.33349609375,16.2836078125,2.40961609375Q16.0999078125,2.48573709375,15.9592078125,2.62638909375L15.9589078125,2.62676409375L2.6262758125,15.95939609375L2.6259008125,15.95969609375Q2.4852488125,16.10039609375,2.4091288125,16.28409609375Q2.3330078125,16.46789609375,2.3330078125,16.66679609375Q2.3330078125,16.86569609375,2.4091278125,17.04949609375Q2.4852488125,17.23329609375,2.6259008125,17.373896093749998Q2.7665528125,17.51459609375,2.9503248125,17.590696093749997Q3.1340958125,17.66679609375,3.3330078125,17.66679609375Q3.5319198125,17.66679609375,3.7156908125,17.590696093749997Q3.8994628125,17.51459609375,4.0401148125,17.373896093749998L4.0404898125,17.373596093750002L17.373107812500002,4.04097809375Z" fill-rule="evenodd" fill="#333333" fill-opacity="1"/></g></g></svg>