<svg xmlns="http://www.w3.org/2000/svg" xmlns:xlink="http://www.w3.org/1999/xlink" fill="none" version="1.1" width="30" height="30" viewBox="0 0 30 30"><g><g></g><g><path d="M22.1316,17.9167C19.7,17.9167,17.5447,19.3167,16.3842,21.4167L8.86842,21.4167C8.53684,21.4167,8.31579,21.65,8.31579,22C8.31579,22.35,8.53684,22.5833,8.86842,22.5833L15.8868,22.5833C15.6658,23.3417,15.5,24.1,15.5,24.9167C15.5,26.4333,15.9421,27.8333,16.7711,29L6.65789,29C5.718421,29,5,28.2417,5,27.25L5,6.25C5,5.25833,5.718421,4.5,6.65789,4.5L11.24474,4.5C11.74211,4.5,12.18421,4.15,12.294740000000001,3.625C12.68158,2.10833,13.95263,1,15.5,1C17.0474,1,18.3184,2.10833,18.7053,3.625C18.8158,4.15,19.2579,4.5,19.7553,4.5L24.3421,4.5C25.2816,4.5,26,5.25833,26,6.25L26,19.2583C24.8947,18.3833,23.5684,17.9167,22.1316,17.9167ZM8.86842,17.3333L19.9211,17.3333C20.2526,17.3333,20.4737,17.1,20.4737,16.75C20.4737,16.4,20.2526,16.1667,19.9211,16.1667L8.86842,16.1667C8.53684,16.1667,8.31579,16.4,8.31579,16.75C8.31579,17.1,8.53684,17.3333,8.86842,17.3333ZM16.6053,4.5L14.39474,4.5C14.06316,4.5,13.8421,4.7333300000000005,13.8421,5.08333C13.8421,5.43333,14.06316,5.66667,14.39474,5.66667L16.6053,5.66667C16.936799999999998,5.66667,17.157899999999998,5.43333,17.157899999999998,5.08333C17.157899999999998,4.7333300000000005,16.936799999999998,4.5,16.6053,4.5ZM22.1316,10.91667L8.86842,10.91667C8.53684,10.91667,8.31579,11.15,8.31579,11.5C8.31579,11.85,8.53684,12.0833,8.86842,12.0833L22.1316,12.0833C22.4632,12.0833,22.6842,11.85,22.6842,11.5C22.6842,11.15,22.4632,10.91667,22.1316,10.91667ZM19.5342,22.2333C19.7553,22,20.0868,22,20.3079,22.2333L22.0763,24.1L23.8447,22.2333C24.0658,22,24.3974,22,24.6184,22.2333C24.8395,22.4667,24.8395,22.8167,24.6184,23.05L22.9053,24.9167L24.6737,26.7833C24.8947,27.0167,24.8947,27.3667,24.6737,27.6C24.4526,27.8333,24.1211,27.8333,23.9,27.6L22.1316,25.7333L20.3632,27.6C20.1421,27.8333,19.810499999999998,27.8333,19.5895,27.6C19.3684,27.3667,19.3684,27.0167,19.5895,26.7833L21.3579,24.9167L19.5895,23.05C19.3684,22.8167,19.3684,22.4083,19.5342,22.2333Z" fill="#A7BAFF" fill-opacity="1"/></g></g></svg>