<svg xmlns="http://www.w3.org/2000/svg" xmlns:xlink="http://www.w3.org/1999/xlink" fill="none" version="1.1" width="30" height="30" viewBox="0 0 30 30"><g><g></g><g><path d="M15,2C7.94176,2,2,7.94176,2,15C2,22.0582,7.94176,28,15,28C22.0582,28,28,22.0582,28,15C28,7.94176,22.0582,2,15,2ZM20.5773,18.719C21.1355,19.2773,21.1355,20.019,20.5773,20.3963C20.019,20.9545,19.2773,20.9545,18.9,20.3963L15.181,16.677300000000002L11.28098,20.5773C10.72274,21.1355,9.980979999999999,21.1355,9.422740000000001,20.5773C8.86451,20.019,8.86451,19.0963,9.422740000000001,18.719L13.3227,14.819L9.619019999999999,11.1C9.060780000000001,10.72275,9.060780000000001,9.980979999999999,9.619019999999999,9.42275C10.17725,8.86451,10.91902,8.86451,11.29628,9.42275L15,13.1418L18.9,9.241769999999999C19.4582,8.683530000000001,20.2,8.683530000000001,20.7582,9.241769999999999C21.3165,9.8,21.3165,10.54177,20.7582,11.1L16.8582,15L20.5773,18.719Z" fill="#FF9494" fill-opacity="1"/></g></g></svg>