<svg xmlns="http://www.w3.org/2000/svg" xmlns:xlink="http://www.w3.org/1999/xlink" fill="none" version="1.1" width="30" height="30" viewBox="0 0 30 30"><g><g></g><g><path d="M15,2.000000581145C22.2091,2.000000581145,28,7.79091,28,15C28,22.2091,22.2091,28,15,28C7.79091,28,2,22.2091,2,15C2,7.79091,7.79091,2,15,2.000000581145ZM8.381820000000001,13.1091C7.31818,13.1091,6.49091,13.9364,6.49091,15C6.49091,16.0636,7.31818,16.890900000000002,8.381820000000001,16.890900000000002C9.445450000000001,16.890900000000002,10.27273,16.0636,10.27273,15C10.27273,13.9364,9.445450000000001,13.1091,8.381820000000001,13.1091ZM15,13.1091C13.9364,13.1091,13.1091,13.9364,13.1091,15C13.1091,16.0636,13.9364,16.890900000000002,15,16.890900000000002C16.0636,16.890900000000002,16.890900000000002,16.0636,16.890900000000002,15C16.890900000000002,13.9364,16.0636,13.1091,15,13.1091ZM21.6182,13.1091C20.5545,13.1091,19.7273,13.9364,19.7273,15C19.7273,16.0636,20.5545,16.890900000000002,21.6182,16.890900000000002C22.6818,16.890900000000002,23.5091,16.0636,23.5091,15C23.5091,13.9364,22.6818,13.1091,21.6182,13.1091Z" fill="#CCCCCC" fill-opacity="1"/></g></g></svg>