<svg xmlns="http://www.w3.org/2000/svg" xmlns:xlink="http://www.w3.org/1999/xlink" fill="none" version="1.1" width="30" height="30" viewBox="0 0 30 30"><g><g></g><g style="opacity:0.699999988079071;"><path d="M6.81396484375,9.4508290625C6.81396484375,13.9684890625,10.47630484375,17.6307890625,14.99400484375,17.6307890625C19.511664843749998,17.6307890625,23.17406484375,13.9684890625,23.17406484375,9.4508290625L23.17406484375,9.4387790625C23.17406484375,4.921109062499999,19.511664843749998,1.2587890625,14.99400484375,1.2587890625C10.47630484375,1.2708361625,6.81396484375,4.9331590625,6.81396484375,9.4508290625Z" fill="#FCA235" fill-opacity="1"/></g><g style="opacity:0.699999988079071;"><path d="M13.223008125,12.24554265625L3.970767125,25.56967265625C3.031087125,26.93097265625,4.043051125,28.73807265625,5.741708125000001,28.73807265625L24.258228125,28.73807265625C25.956928125,28.73807265625,26.968828125,26.91897265625,26.029128125,25.56967265625L16.776928124999998,12.25758965625C15.921628125,11.02878265625,14.066328125,11.02878265625,13.223008125,12.24554265625Z" fill="#FCA235" fill-opacity="1"/></g><g><path d="M16.5596534375,12.46266703125L13.4273834375,12.46266703125C12.7406934375,12.46266703125,12.1865234375,11.90849703125,12.1865234375,11.22180703125C12.1865234375,10.53512503125,12.7527414375,9.98095703125,13.4273834375,9.98095703125L16.5596534375,9.98095703125C17.246343437500002,9.98095703125,17.8005134375,10.54717203125,17.8005134375,11.22180703125C17.8005134375,11.89644703125,17.2342934375,12.46266703125,16.5596534375,12.46266703125Z" fill="#FFFFFF" fill-opacity="1"/></g><g style="opacity:0.699999988079071;"><path d="M26.38008,24.378673281250002Q26.38008,24.48577328125,26.37482,24.59273328125Q26.36957,24.69970328125,26.35907,24.80628328125Q26.348570000000002,24.91286328125,26.33286,25.018793281249998Q26.317140000000002,25.124733281250002,26.29625,25.22977328125Q26.27535,25.33480328125,26.24933,25.43869328125Q26.223309999999998,25.54257328125,26.19222,25.64506328125Q26.16113,25.74754328125,26.12505,25.84838328125Q26.08897,25.94921328125,26.047980000000003,26.048153281250002Q26.006990000000002,26.14710328125,25.961199999999998,26.243913281250002Q25.91541,26.34072328125,25.86493,26.43517328125Q25.814439999999998,26.52962328125,25.75938,26.62148328125Q25.70432,26.71334328125,25.64482,26.802383281250002Q25.58532,26.891433281250002,25.52152,26.97745328125Q25.457720000000002,27.06347328125,25.389780000000002,27.14625328125Q25.32183,27.22904328125,25.24991,27.308393281249998Q25.17799,27.38774328125,25.10226,27.46347328125Q25.02653,27.53920328125,24.94717,27.611123281250002Q24.867820000000002,27.68304328125,24.78503,27.75098328125Q24.70224,27.81892328125,24.61621,27.88272328125Q24.53019,27.94651328125,24.44114,28.00601328125Q24.35209,28.06551328125,24.26023,28.12057328125Q24.16837,28.17563328125,24.073909999999998,28.22611328125Q23.97946,28.27659328125,23.882640000000002,28.322383281249998Q23.78583,28.36817328125,23.686880000000002,28.409163281250002Q23.58793,28.45014328125,23.487090000000002,28.48622328125Q23.38626,28.52230328125,23.28377,28.553393281250003Q23.18128,28.58447328125,23.07739,28.61050328125Q22.9735,28.63652328125,22.86846,28.65741328125Q22.76342,28.678303281250002,22.65748,28.69402328125Q22.55154,28.70973328125,22.44495,28.72023328125Q22.33837,28.73073328125,22.2314,28.73598328125Q22.12443,28.74124328125,22.01733,28.74124328125Q21.91023,28.74124328125,21.80326,28.73598328125Q21.69629,28.73073328125,21.58971,28.72023328125Q21.48312,28.70973328125,21.37718,28.69402328125Q21.27124,28.678303281250002,21.1662,28.65741328125Q21.06116,28.63652328125,20.95727,28.61049328125Q20.85338,28.58447328125,20.75089,28.553393281250003Q20.64841,28.52230328125,20.54757,28.48622328125Q20.44673,28.45014328125,20.34778,28.40915328125Q20.248829999999998,28.36817328125,20.15202,28.322383281249998Q20.0552,28.27659328125,19.96075,28.22611328125Q19.86629,28.175623281249997,19.77443,28.12057328125Q19.68257,28.06551328125,19.59352,28.00601328125Q19.50447,27.94651328125,19.41845,27.88271328125Q19.33242,27.81892328125,19.24964,27.75098328125Q19.16685,27.68304328125,19.08749,27.611123281250002Q19.00814,27.53920328125,18.9324,27.46347328125Q18.85667,27.38774328125,18.78475,27.308393281249998Q18.71283,27.22904328125,18.644884,27.14625328125Q18.576941,27.06347328125,18.513142,26.97745328125Q18.449343,26.891433281250002,18.389842,26.802383281250002Q18.330341,26.71334328125,18.275281,26.62148328125Q18.22022,26.52962328125,18.169734,26.43517328125Q18.119248,26.34072328125,18.073457,26.243913281250002Q18.027666,26.14710328125,17.986681,26.048153281250002Q17.945696,25.94921328125,17.909615,25.84838328125Q17.873535,25.74754328125,17.842445,25.64506328125Q17.811356,25.54257328125,17.785333,25.43869328125Q17.75931,25.33480328125,17.7384158,25.22977328125Q17.7175218,25.124733281250002,17.7018071,25.018793281249998Q17.6860923,24.91286328125,17.6755948,24.80628328125Q17.66509718,24.69970328125,17.65984207,24.59273328125Q17.65458695,24.48577328125,17.65458695,24.378673281250002Q17.65458695,24.27158328125,17.65984207,24.16461328125Q17.66509719,24.05765328125,17.6755948,23.95107328125Q17.6860923,23.84449328125,17.7018071,23.73855328125Q17.7175218,23.632623281249998,17.7384158,23.52758328125Q17.75931,23.42254328125,17.785333,23.31866328125Q17.811356,23.21477328125,17.842445,23.11229328125Q17.873535,23.00980328125,17.909615,22.90897328125Q17.945696,22.80813328125,17.986681,22.709193281250002Q18.027666,22.61025328125,18.073457,22.513443281249998Q18.119248,22.41662328125,18.169734,22.32217328125Q18.22022,22.22773328125,18.275281,22.13587328125Q18.330341,22.04401328125,18.389842,21.95496328125Q18.449343,21.86592328125,18.513142,21.77990328125Q18.576941,21.69388328125,18.644884,21.61109328125Q18.71283,21.52831328125,18.78475,21.44895328125Q18.85667,21.36960328125,18.9324,21.29388328125Q19.00814,21.21815328125,19.08749,21.14623328125Q19.16685,21.07431328125,19.24964,21.00636928125Q19.33242,20.93842928125,19.41845,20.87463228125Q19.50447,20.81083628125,19.59352,20.75133728125Q19.68257,20.69183928125,19.77443,20.63678128125Q19.86629,20.58172328125,19.96075,20.53123928125Q20.0552,20.48075528125,20.15202,20.43496628125Q20.248829999999998,20.38917728125,20.34778,20.34819328125Q20.44673,20.30721028125,20.54757,20.27113128125Q20.64841,20.23505128125,20.75089,20.20396328125Q20.85338,20.17287528125,20.95727,20.14685428125Q21.06116,20.12083228125,21.1662,20.09993868125Q21.27124,20.07904548125,21.37718,20.06333138125Q21.48312,20.04761738125,21.58971,20.03712018125Q21.69629,20.02662308125,21.80326,20.02136818125Q21.91023,20.01611328125,22.01733,20.01611328125Q22.12443,20.01611328125,22.2314,20.02136818125Q22.33837,20.02662308125,22.44495,20.03712018125Q22.55154,20.04761738125,22.65748,20.06333138125Q22.76342,20.07904548125,22.86846,20.09993868125Q22.9735,20.12083228125,23.07739,20.14685428125Q23.18128,20.17287528125,23.28377,20.20396328125Q23.38626,20.23505128125,23.487090000000002,20.27113128125Q23.58793,20.30721028125,23.686880000000002,20.34819328125Q23.78583,20.38917728125,23.882640000000002,20.43496628125Q23.97946,20.48075528125,24.073909999999998,20.53123928125Q24.16837,20.58172328125,24.26023,20.63678128125Q24.35209,20.69183928125,24.44114,20.75133728125Q24.53019,20.81083628125,24.61621,20.87463228125Q24.70224,20.93842928125,24.78503,21.00636928125Q24.867820000000002,21.07431328125,24.94717,21.14623328125Q25.02653,21.21815328125,25.10226,21.29388328125Q25.17799,21.36960328125,25.24991,21.44895328125Q25.32183,21.52831328125,25.389780000000002,21.61109328125Q25.457720000000002,21.69388328125,25.52152,21.77990328125Q25.58532,21.86592328125,25.64482,21.95496328125Q25.70432,22.04401328125,25.75938,22.13587328125Q25.814439999999998,22.22773328125,25.86493,22.32217328125Q25.91541,22.41662328125,25.961199999999998,22.513443281249998Q26.006990000000002,22.61025328125,26.047980000000003,22.709193281250002Q26.08897,22.80813328125,26.12505,22.90897328125Q26.16113,23.00980328125,26.19222,23.11229328125Q26.223300000000002,23.21477328125,26.24933,23.31866328125Q26.27535,23.42254328125,26.29625,23.52758328125Q26.317140000000002,23.632623281249998,26.33285,23.73855328125Q26.348570000000002,23.84449328125,26.35907,23.95107328125Q26.36957,24.05765328125,26.37482,24.16461328125Q26.38008,24.27158328125,26.38008,24.378673281250002Z" fill="#FCA235" fill-opacity="1"/></g><g><path d="M20.0896683125,26.702108046875C19.7162049125,26.328648046875,19.7162049125,25.714248046875,20.0896683125,25.328738046875L23.0653303125,22.353095046875C23.4387903125,21.979633146875,24.0531903125,21.979633146875,24.4387003125,22.353095046875C24.8121703125,22.726556046875,24.8121703125,23.340958046875,24.4387003125,23.726468046875L21.463050312500002,26.702108046875C21.0895903125,27.087608046875,20.4751813125,27.087608046875,20.0896683125,26.702108046875Z" fill="#FFFFFF" fill-opacity="1"/></g><g><path d="M20.0896473125,22.36554621875C20.4631113125,21.99208431875,21.0775203125,21.99208431875,21.4630303125,22.36554621875L24.4386803125,25.34118921875C24.8121403125,25.71464921875,24.8121403125,26.32904921875,24.4386803125,26.71455921875C24.0652203125,27.08801921875,23.4508103125,27.08801921875,23.0653003125,26.71455921875L20.0896473125,23.73891921875C19.7162114125,23.35727921875,19.7162114125,22.74718021875,20.0896473125,22.36554621875Z" fill="#FFFFFF" fill-opacity="1"/></g></g></svg>