<?xml version="1.0" standalone="no"?><!DOCTYPE svg PUBLIC "-//W3C//DTD SVG 1.1//EN" "http://www.w3.org/Graphics/SVG/1.1/DTD/svg11.dtd"><svg t="1688472551612" class="icon" viewBox="0 0 1024 1024" version="1.1" xmlns="http://www.w3.org/2000/svg" p-id="875" xmlns:xlink="http://www.w3.org/1999/xlink" width="200" height="200"><path d="M512 1017.68257903A505.68257903 505.68257903 0 1 1 512 6.31742097a505.68257903 505.68257903 0 0 1 0 1011.36515806z m0-67.42434418A438.25823485 438.25823485 0 1 0 512 73.74176515a438.25823485 438.25823485 0 0 0 0 876.5164697zM242.30262444 545.71217209a33.71217209 33.71217209 0 0 1 0-67.42434418h539.39475112a33.71217209 33.71217209 0 0 1 0 67.42434418H242.30262444z m235.98520347-303.40954765a33.71217209 33.71217209 0 0 1 67.42434418 0v539.39475112a33.71217209 33.71217209 0 0 1-67.42434418 0V242.30262444z" p-id="876"></path></svg>