<?xml version="1.0" standalone="no"?><!DOCTYPE svg PUBLIC "-//W3C//DTD SVG 1.1//EN" "http://www.w3.org/Graphics/SVG/1.1/DTD/svg11.dtd"><svg t="1688472563319" class="icon" viewBox="0 0 1024 1024" version="1.1" xmlns="http://www.w3.org/2000/svg" p-id="1009" xmlns:xlink="http://www.w3.org/1999/xlink" width="200" height="200"><path d="M174.87828027 315.03663569v562.48758789A140.32691545 140.32691545 0 0 0 315.03663569 1017.68257903h562.48758789c77.28515413 0 139.98979425-62.70464011 140.15835545-140.15835545V315.03663569A140.32691545 140.32691545 0 0 0 877.52422358 174.87828027H315.03663569C237.75148155 174.87828027 175.04684144 237.58292038 174.87828027 315.03663569z m702.64594331-77.28515414a76.69519112 76.69519112 0 0 1 77.2008747 76.10522814v563.66751389a76.69519112 76.69519112 0 0 1-76.10522811 77.28515413H315.03663569a76.69519112 76.69519112 0 0 1-77.20087353-76.1052281V315.03663569a76.69519112 76.69519112 0 0 1 76.10522811-77.28515414h563.58323331z" p-id="1010"></path><path d="M6.31742097 140.74470636v594.00846913c0 41.88737361 21.15438771 82.0891388 54.78227922 108.30035296a31.60516068 31.60516068 0 0 0 44.16294506-6.9952755 30.76235704 30.76235704 0 0 0-7.07955611-43.65726264 71.13268227 71.13268227 0 0 1-30.00383283-59.41770383V139.05909793a74.16677789 74.16677789 0 0 1 74.16677903-73.32397427h600.75090287c19.38449869 0 38.85327797 8.76516453 53.09667078 22.75571672 11.96782135 11.79926016 31.18375887 12.55778438 44.0786656 1.68560842 5.30966707-3.45549744 8.84944513-12.22066199 8.84944514-20.98582651a32.02656367 32.02656367 0 0 0-8.84944514-20.98582767A138.21990523 138.21990523 0 0 0 741.32704918 6.31742097H142.34603534C67.33645267 6.31742097 6.40170157 66.49364787 6.31742097 140.74470636z" p-id="1011"></path><path d="M567.625084 373.78009477v192.15938081h-193.84498923a30.34095523 30.34095523 0 0 0 0 60.68190929h192.15938081v192.15937964a30.34095523 30.34095523 0 1 0 60.68190929 0V626.62138487h192.15937964a30.34095523 30.34095523 0 0 0 0-60.68190929H626.62138487V373.78009477c0-16.68752545-13.4848686-30.34095523-30.17239405-30.34095405H596.28042965c-16.85608549 0-28.65534563 13.4848686-28.65534565 30.34095405h0.0842806z" p-id="1012"></path></svg>