<svg xmlns="http://www.w3.org/2000/svg" xmlns:xlink="http://www.w3.org/1999/xlink" fill="none" version="1.1" width="16" height="16" viewBox="0 0 16 16"><g><g></g><g><path d="M8.02287109375,14.848752783203125L2.42287109375,14.848752783203125C2.15887109375,14.848752783203125,1.94287109375,14.632752783203125,1.94287109375,14.368752783203124L1.94287109375,4.152772783203125C1.94287109375,3.408782783203125,2.38287109375,2.7447827832031253,3.07087109375,2.464782783203125L5.87087109375,1.288777783203125C6.42287109375,1.056777783203125,7.03887109375,1.104777783203125,7.53487109375,1.408777783203125C8.13487109375,1.784777783203125,8.502871093749999,2.448782783203125,8.502871093749999,3.168782783203125L8.502871093749999,14.368752783203124C8.502871093749999,14.632752783203125,8.286871093750001,14.848752783203125,8.02287109375,14.848752783203125ZM2.90287109375,13.888752783203126L7.54287109375,13.888752783203126L7.54287109375,3.168782783203125C7.54287109375,2.7767827832031253,7.34287109375,2.424782783203125,7.01487109375,2.216782783203125C6.79087109375,2.072777783203125,6.49487109375,2.056777783203125,6.23887109375,2.168782783203125L3.43887109375,3.344772783203125C3.11087109375,3.480772783203125,2.90287109375,3.800782783203125,2.90287109375,4.152772783203125L2.90287109375,13.888752783203126Z" fill="#2D5AFF" fill-opacity="1"/></g><g><path d="M13.622877197265625,14.848789501953124L8.022877197265625,14.848789501953124C7.758877197265625,14.848789501953124,7.542877197265625,14.632789501953125,7.542877197265625,14.368789501953126L7.542877197265625,4.448785501953125C7.542877197265625,4.296785501953125,7.614877197265625,4.152785501953125,7.742877197265625,4.064785501953125C7.862877197265625,3.976785661953125,8.022877197265625,3.944785601953125,8.174876197265625,3.992785501953125L12.870877197265624,5.488789501953125C13.606877197265625,5.720789501953125,14.102877197265624,6.384789501953125,14.102877197265624,7.144789501953126L14.102877197265624,14.368789501953126C14.102877197265624,14.632789501953125,13.886877197265626,14.848789501953124,13.622877197265625,14.848789501953124ZM8.502878197265625,13.888789501953125L13.142877197265625,13.888789501953125L13.142877197265625,7.144789501953126C13.142877197265625,6.808789501953125,12.918877197265626,6.512789501953125,12.582877197265624,6.400789501953125L8.502878197265625,5.104789501953125L8.502878197265625,13.888789501953125Z" fill="#2D5AFF" fill-opacity="1"/></g><g><path d="M14.422852783203124,14.848762427734375L1.622852783203125,14.848762427734375C1.358852783203125,14.848762427734375,1.142852783203125,14.632763427734375,1.142852783203125,14.368763427734375C1.142852783203125,14.104763427734374,1.358852783203125,13.888763427734375,1.622852783203125,13.888763427734375L14.422852783203124,13.888763427734375C14.686852783203125,13.888763427734375,14.902852783203125,14.104763427734374,14.902852783203125,14.368763427734375C14.902852783203125,14.632763427734375,14.686852783203125,14.848762427734375,14.422852783203124,14.848762427734375Z" fill="#2D5AFF" fill-opacity="1"/></g><g><path d="M6.422850341796876,7.088814697265625L4.182850341796875,7.088814697265625C3.918850341796875,7.088814697265625,3.702850341796875,6.872814697265625,3.702850341796875,6.608814697265625C3.702850341796875,6.344814697265625,3.918850341796875,6.128814697265625,4.182850341796875,6.128814697265625L6.422850341796876,6.128814697265625C6.686850341796875,6.128814697265625,6.902850341796875,6.344814697265625,6.902850341796875,6.608814697265625C6.902850341796875,6.872814697265625,6.686850341796875,7.088814697265625,6.422850341796876,7.088814697265625ZM6.422850341796876,10.448814697265625L4.182850341796875,10.448814697265625C3.918850341796875,10.448814697265625,3.702850341796875,10.232814697265624,3.702850341796875,9.968814697265625C3.702850341796875,9.704814697265626,3.918850341796875,9.488814697265624,4.182850341796875,9.488814697265624L6.422850341796876,9.488814697265624C6.686850341796875,9.488814697265624,6.902850341796875,9.704814697265626,6.902850341796875,9.968814697265625C6.902850341796875,10.232814697265624,6.686850341796875,10.448814697265625,6.422850341796876,10.448814697265625ZM11.942850341796875,10.448814697265625L9.702850341796875,10.448814697265625C9.438850341796876,10.448814697265625,9.222850341796875,10.232814697265624,9.222850341796875,9.968814697265625C9.222850341796875,9.704814697265626,9.438850341796876,9.488814697265624,9.702850341796875,9.488814697265624L11.942850341796875,9.488814697265624C12.206850341796875,9.488814697265624,12.422850341796876,9.704814697265626,12.422850341796876,9.968814697265625C12.422850341796876,10.232814697265624,12.206850341796875,10.448814697265625,11.942850341796875,10.448814697265625Z" fill="#E09527" fill-opacity="1"/></g></g></svg>