<svg xmlns="http://www.w3.org/2000/svg" xmlns:xlink="http://www.w3.org/1999/xlink" fill="none" version="1.1" width="18" height="19" viewBox="0 0 18 19"><g><g></g><g><path d="M13.67891,1.6011152587890625C13.83604,1.4248852587890626,13.92353,1.1920152587890624,13.92353,0.9500192587890625C13.92353,0.9500192587890625,13.92312,0.9212402587890625,13.92312,0.9212402587890625C13.91589,0.6694002587890625,13.81417,0.4309072587890625,13.64036,0.2582252587890625C13.47341,0.0923693587890625,13.25279,0.0000162214040625,13.02353,0.0000152587890625C13.02353,0.0000152587890625,12.99627,0.0004511537890625,12.99627,0.0004511537890625C12.75768,0.0080826487890625,12.53174,0.1154442587890625,12.36815,0.2989182587890625L4.74462,8.848915258789063C4.41846,9.214715258789063,4.41846,9.785315258789062,4.74462,10.151115258789062L12.36744,18.70031525878906L12.36815,18.701115258789063C12.53823,18.891815258789062,12.77537,19.000015258789062,13.02353,19.000015258789062C13.02353,19.000015258789062,13.04285,18.999815258789063,13.04285,18.999815258789063C13.26539,18.994715258789064,13.47827,18.90281525878906,13.64036,18.741815258789064C13.81418,18.56911525878906,13.91589,18.330615258789063,13.92312,18.078815258789064C13.92312,18.078815258789064,13.92353,18.050015258789063,13.92353,18.050015258789063C13.92353,18.050015258789063,13.92339,18.033115258789064,13.92339,18.033115258789064C13.91941,17.797015258789063,13.83225,17.570915258789064,13.67891,17.398915258789064L13.6782,17.398115258789062L6.6359200000000005,9.500015258789062L13.67891,1.6011152587890625Z" fill-rule="evenodd" fill="#333333" fill-opacity="1"/></g></g></svg>