<svg xmlns="http://www.w3.org/2000/svg" xmlns:xlink="http://www.w3.org/1999/xlink" fill="none" version="1.1" width="16" height="16" viewBox="0 0 16 16"><defs><clipPath id="master_svg0_190_80339"><rect x="0" y="16" width="16" height="16" rx="0"/></clipPath></defs><g transform="matrix(1,0,0,-1,0,32)" clip-path="url(#master_svg0_190_80339)"><g><path d="M8,16C3.58846,16,0,19.58846,0,24C0,28.4115,3.58846,32,8,32C12.4115,32,16,28.4115,16,24C16,19.58846,12.4115,16,8,16Z" fill="#F29E38" fill-opacity="1"/></g><g transform="matrix(1,0,0,-1,0,54.4000244140625)"><path d="M11.07252779296875,33.47135220703125C10.902777792968749,33.64129220703125,10.62735779296875,33.64129220703125,10.45759779296875,33.47135220703125L8.00005779296875,31.01380220703125L5.54251079296875,33.47135220703125C5.37274179296875,33.64138220703125,5.09724479296875,33.64149220703125,4.92734379296875,33.47158220703125C4.75744299296875,33.30168220703125,4.75754929296875,33.02619220703125,4.92758179296875,32.85642220703125L7.38512779296875,30.39887220703125L4.92758179296875,27.94132720703125C4.80378433296875,27.81679120703125,4.76709889296875,27.62999120703125,4.83460299296875,27.46788620703125C4.90210679296875,27.30578120703125,5.06053479296875,27.20023010303125,5.23613279296875,27.20036920103125C5.35089279296875,27.20027766003125,5.46103079296875,27.24558270703125,5.54251079296875,27.32639720703125L8.00005779296875,29.78394220703125L10.45760779296875,27.32639720703125C10.58213779296875,27.20260021703125,10.76893779296875,27.16591500703125,10.93104779296875,27.23341910703125C11.09314779296875,27.30092320703125,11.198697792968751,27.45935020703125,11.19855779296875,27.63494820703125C11.19864779296875,27.74970820703125,11.15334779296875,27.85984720703125,11.07252779296875,27.94132620703125L8.61498779296875,30.39887220703125L11.07252779296875,32.85642220703125C11.24247779296875,33.02617220703125,11.24247779296875,33.30159220703125,11.07252779296875,33.47135220703125Z" fill="#FFFFFF" fill-opacity="1"/></g></g></svg>