<svg xmlns="http://www.w3.org/2000/svg" xmlns:xlink="http://www.w3.org/1999/xlink" fill="none" version="1.1" width="12" height="12" viewBox="0 0 12 12"><g><g><path d="M12,6C12,9.31371,9.31371,12,6,12C2.68629,12,0,9.31371,0,6C0,2.68629,2.68629,0,6,0C9.31371,0,12,2.68629,12,6ZM11,6Q11,3.92893,9.53553,2.46447Q8.07107,1,6,1Q3.92893,1,2.46447,2.46447Q1,3.92893,1,6Q1,8.07107,2.46447,9.53553Q3.92893,11,6,11Q8.07107,11,9.53553,9.53553Q11,8.07107,11,6Z" fill-rule="evenodd" fill="#999999" fill-opacity="1"/></g><g><path d="M3,5.5L9,5.5C9.27614,5.5,9.5,5.723858,9.5,6C9.5,6.276142,9.27614,6.5,9,6.5L3,6.5C2.723858,6.5,2.5,6.276142,2.5,6C2.5,5.723858,2.723858,5.5,3,5.5Z" fill-rule="evenodd" fill="#999999" fill-opacity="1"/></g><g transform="matrix(0,1,-1,0,9,-4)"><path d="M7,2.5L13,2.5C13.27614,2.5,13.5,2.723858,13.5,3C13.5,3.276142,13.27614,3.5,13,3.5L7,3.5C6.723858,3.5,6.5,3.276142,6.5,3C6.5,2.723858,6.723858,2.5,7,2.5Z" fill-rule="evenodd" fill="#999999" fill-opacity="1"/></g></g></svg>