<svg xmlns="http://www.w3.org/2000/svg" xmlns:xlink="http://www.w3.org/1999/xlink" fill="none" version="1.1" width="120" height="120" viewBox="0 0 120 120"><g><g><ellipse cx="60.000003814697266" cy="60.000003814697266" rx="60.000003814697266" ry="60.000003814697266" fill="#DCECFF" fill-opacity="1"/></g><g><path d="M26.488018625,33.302864025268555Q26.181640625,34.076754025268556,26.181640625,34.90909402526856Q26.181640625,35.74142402526856,26.488018625,36.515324025268555Q26.820680625,37.355604025268555,27.459720625,37.994644025268556Q28.098760625,38.63368402526855,28.939050625,38.966344025268555Q29.712940625,39.27272402526856,30.545280625,39.27272402526856L86.727140625,39.27272402526856Q87.55944062500001,39.27272402526856,88.333340625,38.966344025268555Q89.17364062499999,38.63368402526855,89.812640625,37.994644025268556Q90.451740625,37.355604025268555,90.784340625,36.515324025268555Q91.090740625,35.74143402526855,91.090740625,34.90909402526856Q91.090740625,34.076754025268556,90.784340625,33.302864025268555Q90.451740625,32.46257402526855,89.812640625,31.823534025268554Q89.17364062499999,31.184492025268554,88.333340625,30.851832025268553Q87.55944062500001,30.545454025268555,86.727140625,30.545454025268555L30.545280625,30.545454025268555Q29.712940625,30.545454025268555,28.939050625,30.851832025268553Q28.098760625,31.184494025268556,27.459720625,31.823534025268554Q26.820680625,32.46257402526855,26.488018625,33.302864025268555ZM29.002500625,36.45187402526855Q28.363460625000002,35.81283402526856,28.363460625000002,34.90909402526856Q28.363460625000002,34.00535402526855,29.002500625,33.36631402526856Q29.641540625,32.72727402526856,30.545280625,32.72727402526856L86.727140625,32.72727402526856Q87.63084062499999,32.72727402526856,88.269840625,33.36631402526856Q88.908940625,34.00535402526855,88.908940625,34.90909402526856Q88.908940625,35.812824025268554,88.269840625,36.45187402526855Q87.63084062499999,37.09090402526856,86.727140625,37.09090402526856L30.545280625,37.09090402526856Q29.641540625,37.09090402526856,29.002500625,36.45187402526855Z" fill-rule="evenodd" fill="#668EFF" fill-opacity="1"/></g><g><path d="M30.544921875,90.5454919494629L34.056281874999996,87.81819194946289L37.567651875,90.5454919494629L41.079021875,87.81819194946289L44.590421875000004,90.5454919494629L48.101721874999996,87.81819194946289L51.613121875000004,90.5454919494629L55.124421874999996,87.81819194946289L58.635821875000005,90.5454919494629L62.147221875,87.81819194946289L65.65852187499999,90.5454919494629L69.169921875,87.81819194946289L72.68132187500001,90.5454919494629L76.192621875,87.81819194946289L79.704021875,90.5454919494629L83.215421875,87.81819194946289L86.72672187500001,90.5454919494629L86.72672187500001,34.90909194946289L30.544921875,34.90909194946289L30.544921875,90.5454919494629Z" fill="#DCECFF" fill-opacity="1"/></g><g><path d="M29.455078125,92.77408389892578L34.057348125,89.19948389892579L37.568718125000004,91.92678389892578L41.080078125,89.19948389892579L44.591478125,91.92678389892578L48.102778125,89.19948389892579L51.614178124999995,91.92678389892578L55.125578125000004,89.19948389892579L58.636878124999996,91.92678389892578L62.148278125,89.19948389892579L65.659578125,91.92678389892578L69.170978125,89.19948389892579L72.682378125,91.92678389892578L76.19367812499999,89.19948389892579L79.705078125,91.92678389892578L83.21647812500001,89.19948389892579L87.81867812499999,92.77408389892578L87.818878125,72.03508389892579L85.63627812499999,73.73758389892578L85.63687812500001,88.31688389892578L83.885578125,86.95658389892577L83.21647812500001,86.43688389892577L79.705078125,89.16418389892578L76.19367812499999,86.43688389892577L72.682378125,89.16418389892578L69.170978125,86.43688389892577L65.659578125,89.16418389892578L62.148278125,86.43688389892577L58.636878124999996,89.16418389892578L55.125578125000004,86.43688389892577L51.614178124999995,89.16418389892578L48.102778125,86.43688389892577L44.591478125,89.16418389892578L41.080078125,86.43688389892577L37.568718125000004,89.16418389892578L34.057348125,86.43688389892577L31.636898125000002,88.31688389892578L31.636898125000002,36.00000389892578L85.63687812500001,36.00000389892578L85.63627812499999,67.40838389892579L87.818878125,65.54608389892579L87.81867812499999,33.81818389892578L29.455078125,33.81818389892578L29.455078125,92.77408389892578Z" fill="#668EFF" fill-opacity="1"/></g><g><g><path d="M36.000179375,42.54545788208008Q36.000179375,42.59904788208008,35.994929375,42.65238788208008Q35.989669375,42.70571788208008,35.979219375,42.75827788208008Q35.968759375,42.810847882080076,35.953199375,42.86212788208008Q35.937649375,42.913417882080076,35.917139375,42.96292788208008Q35.896629375,43.01244788208008,35.871369375,43.059707882080076Q35.846099375,43.10696788208008,35.816329375,43.15153788208008Q35.786549375,43.196097882080075,35.752549375,43.23751788208008Q35.718549375,43.278947882080075,35.680659375,43.316847882080076Q35.642759375,43.35473788208008,35.601329375,43.38873788208008Q35.559909375,43.42273788208008,35.515349375,43.45251788208008Q35.470779375,43.48228788208008,35.423519375,43.507547882080075Q35.376259375000004,43.53281788208008,35.326739375,43.553327882080076Q35.277229375,43.57383788208008,35.225939375,43.589387882080075Q35.174659375,43.604947882080076,35.122089375,43.61540788208008Q35.069529375,43.625857882080076,35.016199375,43.631117882080076Q34.962859375,43.63636788208008,34.909269375,43.63636788208008Q34.855679375,43.63636788208008,34.802340375,43.631117882080076Q34.749006375,43.625857882080076,34.696442375,43.61540788208008Q34.643879375,43.604947882080076,34.592594375,43.589387882080075Q34.541309375,43.57383788208008,34.491795375,43.553327882080076Q34.442282375,43.53281788208008,34.395017375,43.507547882080075Q34.347752375,43.48228788208008,34.303191375,43.45251788208008Q34.258631375,43.42273788208008,34.217203375,43.38873788208008Q34.175775375,43.35473788208008,34.137879375,43.316847882080076Q34.099983375,43.278947882080075,34.065984375,43.23751788208008Q34.031985375,43.196097882080075,34.002210375,43.15153788208008Q33.972436375,43.10696788208008,33.947172375,43.059707882080076Q33.921909375,43.01244788208008,33.901399875,42.96292788208008Q33.880890775,42.913417882080076,33.865333575,42.86212788208008Q33.849776375,42.810847882080076,33.839320875,42.75827788208008Q33.828865475,42.70571788208008,33.823612405,42.65238788208008Q33.818359375,42.59904788208008,33.818359375,42.54545788208008Q33.818359375,42.49186788208008,33.823612405,42.43852888208008Q33.828865475,42.38519388208008,33.839320875,42.332630882080075Q33.849776375,42.280067882080075,33.865333575,42.228782882080075Q33.880890775,42.177497882080075,33.901399875,42.12798388208008Q33.921909375,42.078470882080076,33.947172375,42.03120588208008Q33.972436375,41.98394088208008,34.002210375,41.939379882080075Q34.031985375,41.89481988208008,34.065984375,41.853391882080075Q34.099983375,41.81196388208008,34.137879375,41.774067882080075Q34.175775375,41.73617188208008,34.217203375,41.70217288208008Q34.258631375,41.668173882080076,34.303191375,41.638398882080075Q34.347752375,41.60862488208008,34.395017375,41.58336088208008Q34.442282375,41.55809788208008,34.491795375,41.53758838208008Q34.541309375,41.517079282080076,34.592594375,41.50152208208008Q34.643879375,41.485964882080076,34.696442375,41.47550938208008Q34.749006375,41.46505398208008,34.802340375,41.45980091208008Q34.855679375,41.45454788208008,34.909269375,41.45454788208008Q34.962859375,41.45454788208008,35.016199375,41.45980091208008Q35.069529375,41.46505398208008,35.122099375,41.47550938208008Q35.174659375,41.485964882080076,35.225939375,41.50152208208008Q35.277229375,41.517079282080076,35.326739375,41.53758838208008Q35.376259375000004,41.55809788208008,35.423519375,41.58336088208008Q35.470779375,41.60862488208008,35.515349375,41.638398882080075Q35.559909375,41.668173882080076,35.601329375,41.70217288208008Q35.642759375,41.73617188208008,35.680659375,41.774067882080075Q35.718549375,41.81196388208008,35.752549375,41.853391882080075Q35.786549375,41.89481988208008,35.816329375,41.939379882080075Q35.846099375,41.98394088208008,35.871369375,42.03120588208008Q35.896629375,42.078470882080076,35.917139375,42.12798388208008Q35.937649375,42.177497882080075,35.953199375,42.228782882080075Q35.968759375,42.280067882080075,35.979219375,42.332630882080075Q35.989669375,42.38519388208008,35.994929375,42.43852888208008Q36.000179375,42.49186788208008,36.000179375,42.54545788208008Z" fill="#668EFF" fill-opacity="1"/></g><g><path d="M40.363460625,42.54545788208008Q40.363460625,42.59904788208008,40.358210625,42.65238788208008Q40.352950625,42.70571788208008,40.342500625,42.75827788208008Q40.332040625,42.810847882080076,40.316480625,42.86212788208008Q40.300930625,42.913417882080076,40.280420625,42.96292788208008Q40.259910625,43.01244788208008,40.234650625,43.059707882080076Q40.209380625,43.10696788208008,40.179610625,43.15153788208008Q40.149830625,43.196097882080075,40.115830625,43.23751788208008Q40.081830625,43.278947882080075,40.043940625,43.316847882080076Q40.006040625,43.35473788208008,39.964610625,43.38873788208008Q39.923190625,43.42273788208008,39.878630625,43.45251788208008Q39.834060625,43.48228788208008,39.786800625,43.507547882080075Q39.739540625000004,43.53281788208008,39.690020625,43.553327882080076Q39.640510625,43.57383788208008,39.589220625,43.589387882080075Q39.537940625,43.604947882080076,39.485370625,43.61540788208008Q39.432810625,43.625857882080076,39.379480625,43.631117882080076Q39.326140625,43.63636788208008,39.272550625,43.63636788208008Q39.218960625,43.63636788208008,39.165621625,43.631117882080076Q39.112287625,43.625857882080076,39.059723625,43.61540788208008Q39.007160625,43.604947882080076,38.955875625,43.589387882080075Q38.904590625,43.57383788208008,38.855076625,43.553327882080076Q38.805563625,43.53281788208008,38.758298625,43.507547882080075Q38.711033625,43.48228788208008,38.666472625,43.45251788208008Q38.621912625,43.42273788208008,38.580484625,43.38873788208008Q38.539056625,43.35473788208008,38.501160625,43.316847882080076Q38.463264625,43.278947882080075,38.429265625,43.23751788208008Q38.395266625,43.196097882080075,38.365491625,43.15153788208008Q38.335717625,43.10696788208008,38.310453625,43.059707882080076Q38.285190625,43.01244788208008,38.264681125,42.96292788208008Q38.244172025,42.913417882080076,38.228614825,42.86212788208008Q38.213057625,42.810847882080076,38.202602125,42.75827788208008Q38.192146725,42.70571788208008,38.186893655,42.65238788208008Q38.181640625,42.59904788208008,38.181640625,42.54545788208008Q38.181640625,42.49186788208008,38.186893655,42.43852888208008Q38.192146725,42.38519388208008,38.202602125,42.332630882080075Q38.213057625,42.280067882080075,38.228614825,42.228782882080075Q38.244172025,42.177497882080075,38.264681125,42.12798388208008Q38.285190625,42.078470882080076,38.310453625,42.03120588208008Q38.335717625,41.98394088208008,38.365491625,41.939379882080075Q38.395266625,41.89481988208008,38.429265625,41.853391882080075Q38.463264625,41.81196388208008,38.501160625,41.774067882080075Q38.539056625,41.73617188208008,38.580484625,41.70217288208008Q38.621912625,41.668173882080076,38.666472625,41.638398882080075Q38.711033625,41.60862488208008,38.758298625,41.58336088208008Q38.805563625,41.55809788208008,38.855076625,41.53758838208008Q38.904590625,41.517079282080076,38.955875625,41.50152208208008Q39.007160625,41.485964882080076,39.059723625,41.47550938208008Q39.112287625,41.46505398208008,39.165621625,41.45980091208008Q39.218960625,41.45454788208008,39.272550625,41.45454788208008Q39.326140625,41.45454788208008,39.379480625,41.45980091208008Q39.432810625,41.46505398208008,39.485380625,41.47550938208008Q39.537940625,41.485964882080076,39.589220625,41.50152208208008Q39.640510625,41.517079282080076,39.690020625,41.53758838208008Q39.739540625000004,41.55809788208008,39.786800625,41.58336088208008Q39.834060625,41.60862488208008,39.878630625,41.638398882080075Q39.923190625,41.668173882080076,39.964610625,41.70217288208008Q40.006040625,41.73617188208008,40.043940625,41.774067882080075Q40.081830625,41.81196388208008,40.115830625,41.853391882080075Q40.149830625,41.89481988208008,40.179610625,41.939379882080075Q40.209380625,41.98394088208008,40.234650625,42.03120588208008Q40.259910625,42.078470882080076,40.280420625,42.12798388208008Q40.300930625,42.177497882080075,40.316480625,42.228782882080075Q40.332040625,42.280067882080075,40.342500625,42.332630882080075Q40.352950625,42.38519388208008,40.358210625,42.43852888208008Q40.363460625,42.49186788208008,40.363460625,42.54545788208008Z" fill="#668EFF" fill-opacity="1"/></g><g><path d="M44.726741875,42.54545788208008Q44.726741875,42.59904788208008,44.721491875,42.65238788208008Q44.716231875,42.70571788208008,44.705781875,42.75827788208008Q44.695321875,42.810847882080076,44.679761875,42.86212788208008Q44.664211875,42.913417882080076,44.643701875,42.96292788208008Q44.623191875,43.01244788208008,44.597931875,43.059707882080076Q44.572661875,43.10696788208008,44.542891875,43.15153788208008Q44.513111875,43.196097882080075,44.479111875,43.23751788208008Q44.445111875,43.278947882080075,44.407221875,43.316847882080076Q44.369321875,43.35473788208008,44.327891875,43.38873788208008Q44.286471875,43.42273788208008,44.241911875,43.45251788208008Q44.197341875,43.48228788208008,44.150081875,43.507547882080075Q44.102821875000004,43.53281788208008,44.053301875,43.553327882080076Q44.003791875,43.57383788208008,43.952501875,43.589387882080075Q43.901221875,43.604947882080076,43.848651875,43.61540788208008Q43.796091875,43.625857882080076,43.742761875,43.631117882080076Q43.689421875,43.63636788208008,43.635831875,43.63636788208008Q43.582241875,43.63636788208008,43.528902875,43.631117882080076Q43.475568875,43.625857882080076,43.423004875,43.61540788208008Q43.370441875,43.604947882080076,43.319156875,43.589387882080075Q43.267871875,43.57383788208008,43.218357875,43.553327882080076Q43.168844875,43.53281788208008,43.121579875,43.507547882080075Q43.074314875,43.48228788208008,43.029753875,43.45251788208008Q42.985193875,43.42273788208008,42.943765875,43.38873788208008Q42.902337875,43.35473788208008,42.864441875,43.316847882080076Q42.826545875,43.278947882080075,42.792546875,43.23751788208008Q42.758547875,43.196097882080075,42.728772875,43.15153788208008Q42.698998875,43.10696788208008,42.673734875,43.059707882080076Q42.648471875,43.01244788208008,42.627962375,42.96292788208008Q42.607453275,42.913417882080076,42.591896075,42.86212788208008Q42.576338875,42.810847882080076,42.565883375,42.75827788208008Q42.555427975,42.70571788208008,42.550174905,42.65238788208008Q42.544921875,42.59904788208008,42.544921875,42.54545788208008Q42.544921875,42.49186788208008,42.550174905,42.43852888208008Q42.555427975,42.38519388208008,42.565883375,42.332630882080075Q42.576338875,42.280067882080075,42.591896075,42.228782882080075Q42.607453275,42.177497882080075,42.627962375,42.12798388208008Q42.648471875,42.078470882080076,42.673734875,42.03120588208008Q42.698998875,41.98394088208008,42.728772875,41.939379882080075Q42.758547875,41.89481988208008,42.792546875,41.853391882080075Q42.826545875,41.81196388208008,42.864441875,41.774067882080075Q42.902337875,41.73617188208008,42.943765875,41.70217288208008Q42.985193875,41.668173882080076,43.029753875,41.638398882080075Q43.074314875,41.60862488208008,43.121579875,41.58336088208008Q43.168844875,41.55809788208008,43.218357875,41.53758838208008Q43.267871875,41.517079282080076,43.319156875,41.50152208208008Q43.370441875,41.485964882080076,43.423004875,41.47550938208008Q43.475568875,41.46505398208008,43.528902875,41.45980091208008Q43.582241875,41.45454788208008,43.635831875,41.45454788208008Q43.689421875,41.45454788208008,43.742761875,41.45980091208008Q43.796091875,41.46505398208008,43.848661875,41.47550938208008Q43.901221875,41.485964882080076,43.952501875,41.50152208208008Q44.003791875,41.517079282080076,44.053301875,41.53758838208008Q44.102821875000004,41.55809788208008,44.150081875,41.58336088208008Q44.197341875,41.60862488208008,44.241911875,41.638398882080075Q44.286471875,41.668173882080076,44.327891875,41.70217288208008Q44.369321875,41.73617188208008,44.407221875,41.774067882080075Q44.445111875,41.81196388208008,44.479111875,41.853391882080075Q44.513111875,41.89481988208008,44.542891875,41.939379882080075Q44.572661875,41.98394088208008,44.597931875,42.03120588208008Q44.623191875,42.078470882080076,44.643701875,42.12798388208008Q44.664211875,42.177497882080075,44.679761875,42.228782882080075Q44.695321875,42.280067882080075,44.705781875,42.332630882080075Q44.716231875,42.38519388208008,44.721491875,42.43852888208008Q44.726741875,42.49186788208008,44.726741875,42.54545788208008Z" fill="#668EFF" fill-opacity="1"/></g><g><path d="M49.09197625,42.54545788208008Q49.09197625,42.59904788208008,49.08672625,42.65238788208008Q49.08146625,42.70571788208008,49.07101625,42.75827788208008Q49.06055625,42.810847882080076,49.04499625,42.86212788208008Q49.02944625,42.913417882080076,49.00893625,42.96292788208008Q48.98842625,43.01244788208008,48.96316625,43.059707882080076Q48.93789625,43.10696788208008,48.90812625,43.15153788208008Q48.87834625,43.196097882080075,48.84434625,43.23751788208008Q48.81034625,43.278947882080075,48.77245625,43.316847882080076Q48.73455625,43.35473788208008,48.69312625,43.38873788208008Q48.65170625,43.42273788208008,48.60714625,43.45251788208008Q48.56257625,43.48228788208008,48.51531625,43.507547882080075Q48.468056250000004,43.53281788208008,48.41853625,43.553327882080076Q48.36902625,43.57383788208008,48.31773625,43.589387882080075Q48.26645625,43.604947882080076,48.21388625,43.61540788208008Q48.16132625,43.625857882080076,48.10799625,43.631117882080076Q48.05465625,43.63636788208008,48.00106625,43.63636788208008Q47.94747625,43.63636788208008,47.89413725,43.631117882080076Q47.84080325,43.625857882080076,47.78823925,43.61540788208008Q47.73567625,43.604947882080076,47.68439125,43.589387882080075Q47.63310625,43.57383788208008,47.58359225,43.553327882080076Q47.53407925,43.53281788208008,47.48681425,43.507547882080075Q47.43954925,43.48228788208008,47.39498825,43.45251788208008Q47.35042825,43.42273788208008,47.30900025,43.38873788208008Q47.26757225,43.35473788208008,47.22967625,43.316847882080076Q47.19178025,43.278947882080075,47.15778125,43.23751788208008Q47.12378225,43.196097882080075,47.09400725,43.15153788208008Q47.06423325,43.10696788208008,47.03896925,43.059707882080076Q47.01370625,43.01244788208008,46.99319675,42.96292788208008Q46.97268765,42.913417882080076,46.95713045,42.86212788208008Q46.94157325,42.810847882080076,46.93111775,42.75827788208008Q46.92066235,42.70571788208008,46.91540928,42.65238788208008Q46.91015625,42.59904788208008,46.91015625,42.54545788208008Q46.91015625,42.49186788208008,46.91540928,42.43852888208008Q46.92066235,42.38519388208008,46.93111775,42.332630882080075Q46.94157325,42.280067882080075,46.95713045,42.228782882080075Q46.97268765,42.177497882080075,46.99319675,42.12798388208008Q47.01370625,42.078470882080076,47.03896925,42.03120588208008Q47.06423325,41.98394088208008,47.09400725,41.939379882080075Q47.12378225,41.89481988208008,47.15778125,41.853391882080075Q47.19178025,41.81196388208008,47.22967625,41.774067882080075Q47.26757225,41.73617188208008,47.30900025,41.70217288208008Q47.35042825,41.668173882080076,47.39498825,41.638398882080075Q47.43954925,41.60862488208008,47.48681425,41.58336088208008Q47.53407925,41.55809788208008,47.58359225,41.53758838208008Q47.63310625,41.517079282080076,47.68439125,41.50152208208008Q47.73567625,41.485964882080076,47.78823925,41.47550938208008Q47.84080325,41.46505398208008,47.89413725,41.45980091208008Q47.94747625,41.45454788208008,48.00106625,41.45454788208008Q48.05465625,41.45454788208008,48.10799625,41.45980091208008Q48.16132625,41.46505398208008,48.21389625,41.47550938208008Q48.26645625,41.485964882080076,48.31773625,41.50152208208008Q48.36902625,41.517079282080076,48.41853625,41.53758838208008Q48.468056250000004,41.55809788208008,48.51531625,41.58336088208008Q48.56257625,41.60862488208008,48.60714625,41.638398882080075Q48.65170625,41.668173882080076,48.69312625,41.70217288208008Q48.73455625,41.73617188208008,48.77245625,41.774067882080075Q48.81034625,41.81196388208008,48.84434625,41.853391882080075Q48.87834625,41.89481988208008,48.90812625,41.939379882080075Q48.93789625,41.98394088208008,48.96316625,42.03120588208008Q48.98842625,42.078470882080076,49.00893625,42.12798388208008Q49.02944625,42.177497882080075,49.04499625,42.228782882080075Q49.06055625,42.280067882080075,49.07101625,42.332630882080075Q49.08146625,42.38519388208008,49.08672625,42.43852888208008Q49.09197625,42.49186788208008,49.09197625,42.54545788208008Z" fill="#668EFF" fill-opacity="1"/></g><g><path d="M53.4552575,42.54545788208008Q53.4552575,42.59904788208008,53.4500075,42.65238788208008Q53.4447475,42.70571788208008,53.4342975,42.75827788208008Q53.4238375,42.810847882080076,53.4082775,42.86212788208008Q53.3927275,42.913417882080076,53.3722175,42.96292788208008Q53.3517075,43.01244788208008,53.3264475,43.059707882080076Q53.3011775,43.10696788208008,53.2714075,43.15153788208008Q53.2416275,43.196097882080075,53.2076275,43.23751788208008Q53.1736275,43.278947882080075,53.1357375,43.316847882080076Q53.0978375,43.35473788208008,53.0564075,43.38873788208008Q53.0149875,43.42273788208008,52.9704275,43.45251788208008Q52.9258575,43.48228788208008,52.8785975,43.507547882080075Q52.831337500000004,43.53281788208008,52.7818175,43.553327882080076Q52.7323075,43.57383788208008,52.6810175,43.589387882080075Q52.6297375,43.604947882080076,52.5771675,43.61540788208008Q52.5246075,43.625857882080076,52.4712775,43.631117882080076Q52.4179375,43.63636788208008,52.3643475,43.63636788208008Q52.3107575,43.63636788208008,52.2574185,43.631117882080076Q52.2040845,43.625857882080076,52.1515205,43.61540788208008Q52.0989575,43.604947882080076,52.0476725,43.589387882080075Q51.9963875,43.57383788208008,51.9468735,43.553327882080076Q51.8973605,43.53281788208008,51.8500955,43.507547882080075Q51.8028305,43.48228788208008,51.7582695,43.45251788208008Q51.7137095,43.42273788208008,51.6722815,43.38873788208008Q51.6308535,43.35473788208008,51.5929575,43.316847882080076Q51.5550615,43.278947882080075,51.5210625,43.23751788208008Q51.4870635,43.196097882080075,51.4572885,43.15153788208008Q51.4275145,43.10696788208008,51.4022505,43.059707882080076Q51.3769875,43.01244788208008,51.356478,42.96292788208008Q51.3359689,42.913417882080076,51.3204117,42.86212788208008Q51.3048545,42.810847882080076,51.294399,42.75827788208008Q51.2839436,42.70571788208008,51.27869053,42.65238788208008Q51.2734375,42.59904788208008,51.2734375,42.54545788208008Q51.2734375,42.49186788208008,51.27869053,42.43852888208008Q51.2839436,42.38519388208008,51.294399,42.332630882080075Q51.3048545,42.280067882080075,51.3204117,42.228782882080075Q51.3359689,42.177497882080075,51.356478,42.12798388208008Q51.3769875,42.078470882080076,51.4022505,42.03120588208008Q51.4275145,41.98394088208008,51.4572885,41.939379882080075Q51.4870635,41.89481988208008,51.5210625,41.853391882080075Q51.5550615,41.81196388208008,51.5929575,41.774067882080075Q51.6308535,41.73617188208008,51.6722815,41.70217288208008Q51.7137095,41.668173882080076,51.7582695,41.638398882080075Q51.8028305,41.60862488208008,51.8500955,41.58336088208008Q51.8973605,41.55809788208008,51.9468735,41.53758838208008Q51.9963875,41.517079282080076,52.0476725,41.50152208208008Q52.0989575,41.485964882080076,52.1515205,41.47550938208008Q52.2040845,41.46505398208008,52.2574185,41.45980091208008Q52.3107575,41.45454788208008,52.3643475,41.45454788208008Q52.4179375,41.45454788208008,52.4712775,41.45980091208008Q52.5246075,41.46505398208008,52.5771775,41.47550938208008Q52.6297375,41.485964882080076,52.6810175,41.50152208208008Q52.7323075,41.517079282080076,52.7818175,41.53758838208008Q52.831337500000004,41.55809788208008,52.8785975,41.58336088208008Q52.9258575,41.60862488208008,52.9704275,41.638398882080075Q53.0149875,41.668173882080076,53.0564075,41.70217288208008Q53.0978375,41.73617188208008,53.1357375,41.774067882080075Q53.1736275,41.81196388208008,53.2076275,41.853391882080075Q53.2416275,41.89481988208008,53.2714075,41.939379882080075Q53.3011775,41.98394088208008,53.3264475,42.03120588208008Q53.3517075,42.078470882080076,53.3722175,42.12798388208008Q53.3927275,42.177497882080075,53.4082775,42.228782882080075Q53.4238375,42.280067882080075,53.4342975,42.332630882080075Q53.4447475,42.38519388208008,53.4500075,42.43852888208008Q53.4552575,42.49186788208008,53.4552575,42.54545788208008Z" fill="#668EFF" fill-opacity="1"/></g><g><path d="M57.81853875,42.54545788208008Q57.81853875,42.59904788208008,57.81328875,42.65238788208008Q57.80802875,42.70571788208008,57.79757875,42.75827788208008Q57.78711875,42.810847882080076,57.77155875,42.86212788208008Q57.75600875,42.913417882080076,57.73549875,42.96292788208008Q57.71498875,43.01244788208008,57.68972875,43.059707882080076Q57.66445875,43.10696788208008,57.63468875,43.15153788208008Q57.60490875,43.196097882080075,57.57090875,43.23751788208008Q57.53690875,43.278947882080075,57.49901875,43.316847882080076Q57.46111875,43.35473788208008,57.41968875,43.38873788208008Q57.37826875,43.42273788208008,57.33370875,43.45251788208008Q57.28913875,43.48228788208008,57.24187875,43.507547882080075Q57.194618750000004,43.53281788208008,57.14509875,43.553327882080076Q57.09558875,43.57383788208008,57.04429875,43.589387882080075Q56.99301875,43.604947882080076,56.94044875,43.61540788208008Q56.88788875,43.625857882080076,56.83455875,43.631117882080076Q56.78121875,43.63636788208008,56.72762875,43.63636788208008Q56.67403875,43.63636788208008,56.62069975,43.631117882080076Q56.56736575,43.625857882080076,56.51480175,43.61540788208008Q56.46223875,43.604947882080076,56.41095375,43.589387882080075Q56.35966875,43.57383788208008,56.31015475,43.553327882080076Q56.26064175,43.53281788208008,56.21337675,43.507547882080075Q56.16611175,43.48228788208008,56.12155075,43.45251788208008Q56.07699075,43.42273788208008,56.03556275,43.38873788208008Q55.99413475,43.35473788208008,55.95623875,43.316847882080076Q55.91834275,43.278947882080075,55.88434375,43.23751788208008Q55.85034475,43.196097882080075,55.82056975,43.15153788208008Q55.79079575,43.10696788208008,55.76553175,43.059707882080076Q55.74026875,43.01244788208008,55.71975925,42.96292788208008Q55.69925015,42.913417882080076,55.68369295,42.86212788208008Q55.66813575,42.810847882080076,55.65768025,42.75827788208008Q55.64722485,42.70571788208008,55.64197178,42.65238788208008Q55.63671875,42.59904788208008,55.63671875,42.54545788208008Q55.63671875,42.49186788208008,55.64197178,42.43852888208008Q55.64722485,42.38519388208008,55.65768025,42.332630882080075Q55.66813575,42.280067882080075,55.68369295,42.228782882080075Q55.69925015,42.177497882080075,55.71975925,42.12798388208008Q55.74026875,42.078470882080076,55.76553175,42.03120588208008Q55.79079575,41.98394088208008,55.82056975,41.939379882080075Q55.85034475,41.89481988208008,55.88434375,41.853391882080075Q55.91834275,41.81196388208008,55.95623875,41.774067882080075Q55.99413475,41.73617188208008,56.03556275,41.70217288208008Q56.07699075,41.668173882080076,56.12155075,41.638398882080075Q56.16611175,41.60862488208008,56.21337675,41.58336088208008Q56.26064175,41.55809788208008,56.31015475,41.53758838208008Q56.35966875,41.517079282080076,56.41095375,41.50152208208008Q56.46223875,41.485964882080076,56.51480175,41.47550938208008Q56.56736575,41.46505398208008,56.62069975,41.45980091208008Q56.67403875,41.45454788208008,56.72762875,41.45454788208008Q56.78121875,41.45454788208008,56.83455875,41.45980091208008Q56.88788875,41.46505398208008,56.94045875,41.47550938208008Q56.99301875,41.485964882080076,57.04429875,41.50152208208008Q57.09558875,41.517079282080076,57.14509875,41.53758838208008Q57.194618750000004,41.55809788208008,57.24187875,41.58336088208008Q57.28913875,41.60862488208008,57.33370875,41.638398882080075Q57.37826875,41.668173882080076,57.41968875,41.70217288208008Q57.46111875,41.73617188208008,57.49901875,41.774067882080075Q57.53690875,41.81196388208008,57.57090875,41.853391882080075Q57.60490875,41.89481988208008,57.63468875,41.939379882080075Q57.66445875,41.98394088208008,57.68972875,42.03120588208008Q57.71498875,42.078470882080076,57.73549875,42.12798388208008Q57.75600875,42.177497882080075,57.77155875,42.228782882080075Q57.78711875,42.280067882080075,57.79757875,42.332630882080075Q57.80802875,42.38519388208008,57.81328875,42.43852888208008Q57.81853875,42.49186788208008,57.81853875,42.54545788208008Z" fill="#668EFF" fill-opacity="1"/></g><g><path d="M62.18182,42.54545788208008Q62.18182,42.59904788208008,62.17657,42.65238788208008Q62.17131,42.70571788208008,62.16086,42.75827788208008Q62.1504,42.810847882080076,62.13484,42.86212788208008Q62.11929,42.913417882080076,62.09878,42.96292788208008Q62.07827,43.01244788208008,62.05301,43.059707882080076Q62.02774,43.10696788208008,61.99797,43.15153788208008Q61.96819,43.196097882080075,61.93419,43.23751788208008Q61.90019,43.278947882080075,61.8623,43.316847882080076Q61.8244,43.35473788208008,61.78297,43.38873788208008Q61.74155,43.42273788208008,61.69699,43.45251788208008Q61.65242,43.48228788208008,61.60516,43.507547882080075Q61.557900000000004,43.53281788208008,61.50838,43.553327882080076Q61.45887,43.57383788208008,61.40758,43.589387882080075Q61.3563,43.604947882080076,61.30373,43.61540788208008Q61.25117,43.625857882080076,61.19784,43.631117882080076Q61.1445,43.63636788208008,61.09091,43.63636788208008Q61.03732,43.63636788208008,60.983981,43.631117882080076Q60.930647,43.625857882080076,60.878083,43.61540788208008Q60.82552,43.604947882080076,60.774235,43.589387882080075Q60.72295,43.57383788208008,60.673436,43.553327882080076Q60.623923,43.53281788208008,60.576658,43.507547882080075Q60.529393,43.48228788208008,60.484832,43.45251788208008Q60.440272,43.42273788208008,60.398844,43.38873788208008Q60.357416,43.35473788208008,60.31952,43.316847882080076Q60.281624,43.278947882080075,60.247625,43.23751788208008Q60.213626,43.196097882080075,60.183851,43.15153788208008Q60.154077,43.10696788208008,60.128813,43.059707882080076Q60.10355,43.01244788208008,60.0830405,42.96292788208008Q60.0625314,42.913417882080076,60.0469742,42.86212788208008Q60.031417,42.810847882080076,60.0209615,42.75827788208008Q60.0105061,42.70571788208008,60.00525303,42.65238788208008Q60,42.59904788208008,60,42.54545788208008Q60,42.49186788208008,60.00525303,42.43852888208008Q60.0105061,42.38519388208008,60.0209615,42.332630882080075Q60.031417,42.280067882080075,60.0469742,42.228782882080075Q60.0625314,42.177497882080075,60.0830405,42.12798388208008Q60.10355,42.078470882080076,60.128813,42.03120588208008Q60.154077,41.98394088208008,60.183851,41.939379882080075Q60.213626,41.89481988208008,60.247625,41.853391882080075Q60.281624,41.81196388208008,60.31952,41.774067882080075Q60.357416,41.73617188208008,60.398844,41.70217288208008Q60.440272,41.668173882080076,60.484832,41.638398882080075Q60.529393,41.60862488208008,60.576658,41.58336088208008Q60.623923,41.55809788208008,60.673436,41.53758838208008Q60.72295,41.517079282080076,60.774235,41.50152208208008Q60.82552,41.485964882080076,60.878083,41.47550938208008Q60.930647,41.46505398208008,60.983981,41.45980091208008Q61.03732,41.45454788208008,61.09091,41.45454788208008Q61.1445,41.45454788208008,61.19784,41.45980091208008Q61.25117,41.46505398208008,61.30374,41.47550938208008Q61.3563,41.485964882080076,61.40758,41.50152208208008Q61.45887,41.517079282080076,61.50838,41.53758838208008Q61.557900000000004,41.55809788208008,61.60516,41.58336088208008Q61.65242,41.60862488208008,61.69699,41.638398882080075Q61.74155,41.668173882080076,61.78297,41.70217288208008Q61.8244,41.73617188208008,61.8623,41.774067882080075Q61.90019,41.81196388208008,61.93419,41.853391882080075Q61.96819,41.89481988208008,61.99797,41.939379882080075Q62.02774,41.98394088208008,62.05301,42.03120588208008Q62.07827,42.078470882080076,62.09878,42.12798388208008Q62.11929,42.177497882080075,62.13484,42.228782882080075Q62.1504,42.280067882080075,62.16086,42.332630882080075Q62.17131,42.38519388208008,62.17657,42.43852888208008Q62.18182,42.49186788208008,62.18182,42.54545788208008Z" fill="#668EFF" fill-opacity="1"/></g><g><path d="M66.54510125,42.54545788208008Q66.54510125,42.59904788208008,66.53985125,42.65238788208008Q66.53459125,42.70571788208008,66.52414125,42.75827788208008Q66.51368125,42.810847882080076,66.49812125,42.86212788208008Q66.48257125,42.913417882080076,66.46206125,42.96292788208008Q66.44155125,43.01244788208008,66.41629125,43.059707882080076Q66.39102125,43.10696788208008,66.36125125,43.15153788208008Q66.33147125,43.196097882080075,66.29747125,43.23751788208008Q66.26347125,43.278947882080075,66.22558125,43.316847882080076Q66.18768125,43.35473788208008,66.14625125,43.38873788208008Q66.10483125,43.42273788208008,66.06027125,43.45251788208008Q66.01570125,43.48228788208008,65.96844125,43.507547882080075Q65.92118125,43.53281788208008,65.87166125,43.553327882080076Q65.82215125,43.57383788208008,65.77086125,43.589387882080075Q65.71958125,43.604947882080076,65.66701125,43.61540788208008Q65.61445125,43.625857882080076,65.56112125,43.631117882080076Q65.50778125,43.63636788208008,65.45419125,43.63636788208008Q65.40060125,43.63636788208008,65.34726225,43.631117882080076Q65.29392825,43.625857882080076,65.24136425,43.61540788208008Q65.18880125,43.604947882080076,65.13751625,43.589387882080075Q65.08623125,43.57383788208008,65.03671725,43.553327882080076Q64.98720425,43.53281788208008,64.93993925,43.507547882080075Q64.89267425,43.48228788208008,64.84811325,43.45251788208008Q64.80355325,43.42273788208008,64.76212525,43.38873788208008Q64.72069725,43.35473788208008,64.68280125,43.316847882080076Q64.64490525,43.278947882080075,64.61090625,43.23751788208008Q64.57690725,43.196097882080075,64.54713225,43.15153788208008Q64.51735825,43.10696788208008,64.49209425,43.059707882080076Q64.46683125,43.01244788208008,64.44632175,42.96292788208008Q64.42581265,42.913417882080076,64.41025545,42.86212788208008Q64.39469825,42.810847882080076,64.38424275,42.75827788208008Q64.37378735,42.70571788208008,64.36853428,42.65238788208008Q64.36328125,42.59904788208008,64.36328125,42.54545788208008Q64.36328125,42.49186788208008,64.36853428,42.43852888208008Q64.37378735,42.38519388208008,64.38424275,42.332630882080075Q64.39469825,42.280067882080075,64.41025545,42.228782882080075Q64.42581265,42.177497882080075,64.44632175,42.12798388208008Q64.46683125,42.078470882080076,64.49209425,42.03120588208008Q64.51735825,41.98394088208008,64.54713225,41.939379882080075Q64.57690725,41.89481988208008,64.61090625,41.853391882080075Q64.64490525,41.81196388208008,64.68280125,41.774067882080075Q64.72069725,41.73617188208008,64.76212525,41.70217288208008Q64.80355325,41.668173882080076,64.84811325,41.638398882080075Q64.89267425,41.60862488208008,64.93993925,41.58336088208008Q64.98720425,41.55809788208008,65.03671725,41.53758838208008Q65.08623125,41.517079282080076,65.13751625,41.50152208208008Q65.18880125,41.485964882080076,65.24136425,41.47550938208008Q65.29392825,41.46505398208008,65.34726225,41.45980091208008Q65.40060125,41.45454788208008,65.45419125,41.45454788208008Q65.50778125,41.45454788208008,65.56112125,41.45980091208008Q65.61445125,41.46505398208008,65.66702125,41.47550938208008Q65.71958125,41.485964882080076,65.77086125,41.50152208208008Q65.82215125,41.517079282080076,65.87166125,41.53758838208008Q65.92118125,41.55809788208008,65.96844125,41.58336088208008Q66.01570125,41.60862488208008,66.06027125,41.638398882080075Q66.10483125,41.668173882080076,66.14625125,41.70217288208008Q66.18768125,41.73617188208008,66.22558125,41.774067882080075Q66.26347125,41.81196388208008,66.29747125,41.853391882080075Q66.33147125,41.89481988208008,66.36125125,41.939379882080075Q66.39102125,41.98394088208008,66.41629125,42.03120588208008Q66.44155125,42.078470882080076,66.46206125,42.12798388208008Q66.48257125,42.177497882080075,66.49812125,42.228782882080075Q66.51368125,42.280067882080075,66.52414125,42.332630882080075Q66.53459125,42.38519388208008,66.53985125,42.43852888208008Q66.54510125,42.49186788208008,66.54510125,42.54545788208008Z" fill="#668EFF" fill-opacity="1"/></g><g><path d="M70.9083825,42.54545788208008Q70.9083825,42.59904788208008,70.9031325,42.65238788208008Q70.8978725,42.70571788208008,70.8874225,42.75827788208008Q70.8769625,42.810847882080076,70.8614025,42.86212788208008Q70.8458525,42.913417882080076,70.8253425,42.96292788208008Q70.8048325,43.01244788208008,70.7795725,43.059707882080076Q70.7543025,43.10696788208008,70.7245325,43.15153788208008Q70.6947525,43.196097882080075,70.6607525,43.23751788208008Q70.6267525,43.278947882080075,70.5888625,43.316847882080076Q70.5509625,43.35473788208008,70.5095325,43.38873788208008Q70.4681125,43.42273788208008,70.4235525,43.45251788208008Q70.3789825,43.48228788208008,70.3317225,43.507547882080075Q70.2844625,43.53281788208008,70.2349425,43.553327882080076Q70.1854325,43.57383788208008,70.1341425,43.589387882080075Q70.0828625,43.604947882080076,70.0302925,43.61540788208008Q69.9777325,43.625857882080076,69.9244025,43.631117882080076Q69.8710625,43.63636788208008,69.8174725,43.63636788208008Q69.7638825,43.63636788208008,69.7105435,43.631117882080076Q69.6572095,43.625857882080076,69.6046455,43.61540788208008Q69.5520825,43.604947882080076,69.5007975,43.589387882080075Q69.4495125,43.57383788208008,69.3999985,43.553327882080076Q69.3504855,43.53281788208008,69.3032205,43.507547882080075Q69.2559555,43.48228788208008,69.2113945,43.45251788208008Q69.1668345,43.42273788208008,69.1254065,43.38873788208008Q69.0839785,43.35473788208008,69.0460825,43.316847882080076Q69.0081865,43.278947882080075,68.9741875,43.23751788208008Q68.9401885,43.196097882080075,68.9104135,43.15153788208008Q68.8806395,43.10696788208008,68.8553755,43.059707882080076Q68.8301125,43.01244788208008,68.809603,42.96292788208008Q68.7890939,42.913417882080076,68.7735367,42.86212788208008Q68.7579795,42.810847882080076,68.747524,42.75827788208008Q68.7370686,42.70571788208008,68.73181553,42.65238788208008Q68.7265625,42.59904788208008,68.7265625,42.54545788208008Q68.7265625,42.49186788208008,68.73181553,42.43852888208008Q68.7370686,42.38519388208008,68.747524,42.332630882080075Q68.7579795,42.280067882080075,68.7735367,42.228782882080075Q68.7890939,42.177497882080075,68.809603,42.12798388208008Q68.8301125,42.078470882080076,68.8553755,42.03120588208008Q68.8806395,41.98394088208008,68.9104135,41.939379882080075Q68.9401885,41.89481988208008,68.9741875,41.853391882080075Q69.0081865,41.81196388208008,69.0460825,41.774067882080075Q69.0839785,41.73617188208008,69.1254065,41.70217288208008Q69.1668345,41.668173882080076,69.2113945,41.638398882080075Q69.2559555,41.60862488208008,69.3032205,41.58336088208008Q69.3504855,41.55809788208008,69.3999985,41.53758838208008Q69.4495125,41.517079282080076,69.5007975,41.50152208208008Q69.5520825,41.485964882080076,69.6046455,41.47550938208008Q69.6572095,41.46505398208008,69.7105435,41.45980091208008Q69.7638825,41.45454788208008,69.8174725,41.45454788208008Q69.8710625,41.45454788208008,69.9244025,41.45980091208008Q69.9777325,41.46505398208008,70.0303025,41.47550938208008Q70.0828625,41.485964882080076,70.1341425,41.50152208208008Q70.1854325,41.517079282080076,70.2349425,41.53758838208008Q70.2844625,41.55809788208008,70.3317225,41.58336088208008Q70.3789825,41.60862488208008,70.4235525,41.638398882080075Q70.4681125,41.668173882080076,70.5095325,41.70217288208008Q70.5509625,41.73617188208008,70.5888625,41.774067882080075Q70.6267525,41.81196388208008,70.6607525,41.853391882080075Q70.6947525,41.89481988208008,70.7245325,41.939379882080075Q70.7543025,41.98394088208008,70.7795725,42.03120588208008Q70.8048325,42.078470882080076,70.8253425,42.12798388208008Q70.8458525,42.177497882080075,70.8614025,42.228782882080075Q70.8769625,42.280067882080075,70.8874225,42.332630882080075Q70.8978725,42.38519388208008,70.9031325,42.43852888208008Q70.9083825,42.49186788208008,70.9083825,42.54545788208008Z" fill="#668EFF" fill-opacity="1"/></g><g><path d="M75.273616875,42.54545788208008Q75.273616875,42.59904788208008,75.268366875,42.65238788208008Q75.263106875,42.70571788208008,75.252656875,42.75827788208008Q75.242196875,42.810847882080076,75.226636875,42.86212788208008Q75.211086875,42.913417882080076,75.190576875,42.96292788208008Q75.170066875,43.01244788208008,75.144806875,43.059707882080076Q75.119536875,43.10696788208008,75.089766875,43.15153788208008Q75.059986875,43.196097882080075,75.025986875,43.23751788208008Q74.991986875,43.278947882080075,74.954096875,43.316847882080076Q74.916196875,43.35473788208008,74.874766875,43.38873788208008Q74.833346875,43.42273788208008,74.788786875,43.45251788208008Q74.744216875,43.48228788208008,74.696956875,43.507547882080075Q74.649696875,43.53281788208008,74.600176875,43.553327882080076Q74.550666875,43.57383788208008,74.499376875,43.589387882080075Q74.448096875,43.604947882080076,74.395526875,43.61540788208008Q74.342966875,43.625857882080076,74.289636875,43.631117882080076Q74.236296875,43.63636788208008,74.182706875,43.63636788208008Q74.129116875,43.63636788208008,74.075777875,43.631117882080076Q74.022443875,43.625857882080076,73.969879875,43.61540788208008Q73.917316875,43.604947882080076,73.866031875,43.589387882080075Q73.814746875,43.57383788208008,73.765232875,43.553327882080076Q73.715719875,43.53281788208008,73.668454875,43.507547882080075Q73.621189875,43.48228788208008,73.576628875,43.45251788208008Q73.532068875,43.42273788208008,73.490640875,43.38873788208008Q73.449212875,43.35473788208008,73.411316875,43.316847882080076Q73.373420875,43.278947882080075,73.339421875,43.23751788208008Q73.305422875,43.196097882080075,73.275647875,43.15153788208008Q73.245873875,43.10696788208008,73.220609875,43.059707882080076Q73.195346875,43.01244788208008,73.174837375,42.96292788208008Q73.154328275,42.913417882080076,73.138771075,42.86212788208008Q73.123213875,42.810847882080076,73.112758375,42.75827788208008Q73.102302975,42.70571788208008,73.097049905,42.65238788208008Q73.091796875,42.59904788208008,73.091796875,42.54545788208008Q73.091796875,42.49186788208008,73.097049905,42.43852888208008Q73.102302975,42.38519388208008,73.112758375,42.332630882080075Q73.123213875,42.280067882080075,73.138771075,42.228782882080075Q73.154328275,42.177497882080075,73.174837375,42.12798388208008Q73.195346875,42.078470882080076,73.220609875,42.03120588208008Q73.245873875,41.98394088208008,73.275647875,41.939379882080075Q73.305422875,41.89481988208008,73.339421875,41.853391882080075Q73.373420875,41.81196388208008,73.411316875,41.774067882080075Q73.449212875,41.73617188208008,73.490640875,41.70217288208008Q73.532068875,41.668173882080076,73.576628875,41.638398882080075Q73.621189875,41.60862488208008,73.668454875,41.58336088208008Q73.715719875,41.55809788208008,73.765232875,41.53758838208008Q73.814746875,41.517079282080076,73.866031875,41.50152208208008Q73.917316875,41.485964882080076,73.969879875,41.47550938208008Q74.022443875,41.46505398208008,74.075777875,41.45980091208008Q74.129116875,41.45454788208008,74.182706875,41.45454788208008Q74.236296875,41.45454788208008,74.289636875,41.45980091208008Q74.342966875,41.46505398208008,74.395536875,41.47550938208008Q74.448096875,41.485964882080076,74.499376875,41.50152208208008Q74.550666875,41.517079282080076,74.600176875,41.53758838208008Q74.649696875,41.55809788208008,74.696956875,41.58336088208008Q74.744216875,41.60862488208008,74.788786875,41.638398882080075Q74.833346875,41.668173882080076,74.874766875,41.70217288208008Q74.916196875,41.73617188208008,74.954096875,41.774067882080075Q74.991986875,41.81196388208008,75.025986875,41.853391882080075Q75.059986875,41.89481988208008,75.089766875,41.939379882080075Q75.119536875,41.98394088208008,75.144806875,42.03120588208008Q75.170066875,42.078470882080076,75.190576875,42.12798388208008Q75.211086875,42.177497882080075,75.226636875,42.228782882080075Q75.242196875,42.280067882080075,75.252656875,42.332630882080075Q75.263106875,42.38519388208008,75.268366875,42.43852888208008Q75.273616875,42.49186788208008,75.273616875,42.54545788208008Z" fill="#668EFF" fill-opacity="1"/></g><g><path d="M79.636898125,42.54545788208008Q79.636898125,42.59904788208008,79.631648125,42.65238788208008Q79.626388125,42.70571788208008,79.615938125,42.75827788208008Q79.605478125,42.810847882080076,79.589918125,42.86212788208008Q79.574368125,42.913417882080076,79.553858125,42.96292788208008Q79.533348125,43.01244788208008,79.508088125,43.059707882080076Q79.482818125,43.10696788208008,79.453048125,43.15153788208008Q79.423268125,43.196097882080075,79.389268125,43.23751788208008Q79.355268125,43.278947882080075,79.317378125,43.316847882080076Q79.279478125,43.35473788208008,79.238048125,43.38873788208008Q79.196628125,43.42273788208008,79.152068125,43.45251788208008Q79.107498125,43.48228788208008,79.060238125,43.507547882080075Q79.012978125,43.53281788208008,78.963458125,43.553327882080076Q78.913948125,43.57383788208008,78.862658125,43.589387882080075Q78.811378125,43.604947882080076,78.758808125,43.61540788208008Q78.706248125,43.625857882080076,78.652918125,43.631117882080076Q78.599578125,43.63636788208008,78.545988125,43.63636788208008Q78.492398125,43.63636788208008,78.439059125,43.631117882080076Q78.385725125,43.625857882080076,78.333161125,43.61540788208008Q78.280598125,43.604947882080076,78.229313125,43.589387882080075Q78.178028125,43.57383788208008,78.128514125,43.553327882080076Q78.079001125,43.53281788208008,78.031736125,43.507547882080075Q77.984471125,43.48228788208008,77.939910125,43.45251788208008Q77.895350125,43.42273788208008,77.853922125,43.38873788208008Q77.812494125,43.35473788208008,77.774598125,43.316847882080076Q77.736702125,43.278947882080075,77.702703125,43.23751788208008Q77.668704125,43.196097882080075,77.638929125,43.15153788208008Q77.609155125,43.10696788208008,77.583891125,43.059707882080076Q77.558628125,43.01244788208008,77.538118625,42.96292788208008Q77.517609525,42.913417882080076,77.502052325,42.86212788208008Q77.486495125,42.810847882080076,77.476039625,42.75827788208008Q77.465584225,42.70571788208008,77.460331155,42.65238788208008Q77.455078125,42.59904788208008,77.455078125,42.54545788208008Q77.455078125,42.49186788208008,77.460331155,42.43852888208008Q77.465584225,42.38519388208008,77.476039625,42.332630882080075Q77.486495125,42.280067882080075,77.502052325,42.228782882080075Q77.517609525,42.177497882080075,77.538118625,42.12798388208008Q77.558628125,42.078470882080076,77.583891125,42.03120588208008Q77.609155125,41.98394088208008,77.638929125,41.939379882080075Q77.668704125,41.89481988208008,77.702703125,41.853391882080075Q77.736702125,41.81196388208008,77.774598125,41.774067882080075Q77.812494125,41.73617188208008,77.853922125,41.70217288208008Q77.895350125,41.668173882080076,77.939910125,41.638398882080075Q77.984471125,41.60862488208008,78.031736125,41.58336088208008Q78.079001125,41.55809788208008,78.128514125,41.53758838208008Q78.178028125,41.517079282080076,78.229313125,41.50152208208008Q78.280598125,41.485964882080076,78.333161125,41.47550938208008Q78.385725125,41.46505398208008,78.439059125,41.45980091208008Q78.492398125,41.45454788208008,78.545988125,41.45454788208008Q78.599578125,41.45454788208008,78.652918125,41.45980091208008Q78.706248125,41.46505398208008,78.758818125,41.47550938208008Q78.811378125,41.485964882080076,78.862658125,41.50152208208008Q78.913948125,41.517079282080076,78.963458125,41.53758838208008Q79.012978125,41.55809788208008,79.060238125,41.58336088208008Q79.107498125,41.60862488208008,79.152068125,41.638398882080075Q79.196628125,41.668173882080076,79.238048125,41.70217288208008Q79.279478125,41.73617188208008,79.317378125,41.774067882080075Q79.355268125,41.81196388208008,79.389268125,41.853391882080075Q79.423268125,41.89481988208008,79.453048125,41.939379882080075Q79.482818125,41.98394088208008,79.508088125,42.03120588208008Q79.533348125,42.078470882080076,79.553858125,42.12798388208008Q79.574368125,42.177497882080075,79.589918125,42.228782882080075Q79.605478125,42.280067882080075,79.615938125,42.332630882080075Q79.626388125,42.38519388208008,79.631648125,42.43852888208008Q79.636898125,42.49186788208008,79.636898125,42.54545788208008Z" fill="#668EFF" fill-opacity="1"/></g><g><path d="M84.00018700439453,42.54545788208008Q84.00018700439453,42.59904788208008,83.99493700439453,42.65238788208008Q83.98967700439454,42.70571788208008,83.97922700439453,42.75827788208008Q83.96876700439454,42.810847882080076,83.95320700439453,42.86212788208008Q83.93765700439454,42.913417882080076,83.91714700439454,42.96292788208008Q83.89663700439453,43.01244788208008,83.87137700439453,43.059707882080076Q83.84610700439453,43.10696788208008,83.81633700439453,43.15153788208008Q83.78655700439454,43.196097882080075,83.75255700439453,43.23751788208008Q83.71855700439453,43.278947882080075,83.68066700439454,43.316847882080076Q83.64276700439453,43.35473788208008,83.60133700439454,43.38873788208008Q83.55991700439453,43.42273788208008,83.51535700439453,43.45251788208008Q83.47078700439454,43.48228788208008,83.42352700439453,43.507547882080075Q83.37626700439453,43.53281788208008,83.32674700439453,43.553327882080076Q83.27723700439454,43.57383788208008,83.22594700439453,43.589387882080075Q83.17466700439454,43.604947882080076,83.12209700439453,43.61540788208008Q83.06953700439453,43.625857882080076,83.01620700439453,43.631117882080076Q82.96286700439452,43.63636788208008,82.90927700439453,43.63636788208008Q82.85568700439453,43.63636788208008,82.80234800439453,43.631117882080076Q82.74901400439452,43.625857882080076,82.69645000439453,43.61540788208008Q82.64388700439453,43.604947882080076,82.59260200439454,43.589387882080075Q82.54131700439453,43.57383788208008,82.49180300439453,43.553327882080076Q82.44229000439454,43.53281788208008,82.39502500439453,43.507547882080075Q82.34776000439453,43.48228788208008,82.30319900439453,43.45251788208008Q82.25863900439452,43.42273788208008,82.21721100439453,43.38873788208008Q82.17578300439453,43.35473788208008,82.13788700439453,43.316847882080076Q82.09999100439452,43.278947882080075,82.06599200439453,43.23751788208008Q82.03199300439454,43.196097882080075,82.00221800439454,43.15153788208008Q81.97244400439453,43.10696788208008,81.94718000439453,43.059707882080076Q81.92191700439453,43.01244788208008,81.90140750439453,42.96292788208008Q81.88089840439453,42.913417882080076,81.86534120439453,42.86212788208008Q81.84978400439454,42.810847882080076,81.83932850439453,42.75827788208008Q81.82887310439453,42.70571788208008,81.82362003439454,42.65238788208008Q81.81836700439453,42.59904788208008,81.81836700439453,42.54545788208008Q81.81836700439453,42.49186788208008,81.82362003439454,42.43852888208008Q81.82887310439453,42.38519388208008,81.83932850439453,42.332630882080075Q81.84978400439454,42.280067882080075,81.86534120439453,42.228782882080075Q81.88089840439453,42.177497882080075,81.90140750439453,42.12798388208008Q81.92191700439453,42.078470882080076,81.94718000439453,42.03120588208008Q81.97244400439453,41.98394088208008,82.00221800439454,41.939379882080075Q82.03199300439454,41.89481988208008,82.06599200439453,41.853391882080075Q82.09999100439452,41.81196388208008,82.13788700439453,41.774067882080075Q82.17578300439453,41.73617188208008,82.21721100439453,41.70217288208008Q82.25863900439452,41.668173882080076,82.30319900439453,41.638398882080075Q82.34776000439453,41.60862488208008,82.39502500439453,41.58336088208008Q82.44229000439454,41.55809788208008,82.49180300439453,41.53758838208008Q82.54131700439453,41.517079282080076,82.59260200439454,41.50152208208008Q82.64388700439453,41.485964882080076,82.69645000439453,41.47550938208008Q82.74901400439452,41.46505398208008,82.80234800439453,41.45980091208008Q82.85568700439453,41.45454788208008,82.90927700439453,41.45454788208008Q82.96286700439452,41.45454788208008,83.01620700439453,41.45980091208008Q83.06953700439453,41.46505398208008,83.12210700439454,41.47550938208008Q83.17466700439454,41.485964882080076,83.22594700439453,41.50152208208008Q83.27723700439454,41.517079282080076,83.32674700439453,41.53758838208008Q83.37626700439453,41.55809788208008,83.42352700439453,41.58336088208008Q83.47078700439454,41.60862488208008,83.51535700439453,41.638398882080075Q83.55991700439453,41.668173882080076,83.60133700439454,41.70217288208008Q83.64276700439453,41.73617188208008,83.68066700439454,41.774067882080075Q83.71855700439453,41.81196388208008,83.75255700439453,41.853391882080075Q83.78655700439454,41.89481988208008,83.81633700439453,41.939379882080075Q83.84610700439453,41.98394088208008,83.87137700439453,42.03120588208008Q83.89663700439453,42.078470882080076,83.91714700439454,42.12798388208008Q83.93765700439454,42.177497882080075,83.95320700439453,42.228782882080075Q83.96876700439454,42.280067882080075,83.97922700439453,42.332630882080075Q83.98967700439454,42.38519388208008,83.99493700439453,42.43852888208008Q84.00018700439453,42.49186788208008,84.00018700439453,42.54545788208008Z" fill="#668EFF" fill-opacity="1"/></g></g><g><g><path d="M39.8174725,51.27273178100586L56.7265625,51.27273178100586C57.3290625,51.27273178100586,57.817462500000005,51.76114878100586,57.817462500000005,52.36364178100586C57.817462500000005,52.966131781005856,57.3290625,53.45455178100586,56.7265625,53.45455178100586L39.8174725,53.45455178100586C39.2149795,53.45455178100586,38.7265625,52.966131781005856,38.7265625,52.36364178100586C38.7265625,51.76114878100586,39.2149795,51.27273178100586,39.8174725,51.27273178100586Z" fill-rule="evenodd" fill="#668EFF" fill-opacity="1"/></g><g><path d="M45.272550625,58.909096240997314L62.181640625,58.909096240997314C62.784140625,58.909096240997314,63.272540625000005,59.39751324099731,63.272540625000005,60.000006240997315C63.272540625000005,60.60249624099731,62.784140625,61.090916240997316,62.181640625,61.090916240997316L45.272550625,61.090916240997316C44.670057625,61.090916240997316,44.181640625,60.60249624099731,44.181640625,60.000006240997315C44.181640625,59.39751324099731,44.670057625,58.909096240997314,45.272550625,58.909096240997314Z" fill-rule="evenodd" fill="#668EFF" fill-opacity="1"/></g><g><path d="M39.8174725,74.18182754516602L56.7265625,74.18182754516602C57.3290625,74.18182754516602,57.817462500000005,74.67024454516601,57.817462500000005,75.27273754516601C57.817462500000005,75.87522754516601,57.3290625,76.36364754516602,56.7265625,76.36364754516602L39.8174725,76.36364754516602C39.2149795,76.36364754516602,38.7265625,75.87522754516601,38.7265625,75.27273754516601C38.7265625,74.67024454516601,39.2149795,74.18182754516602,39.8174725,74.18182754516602Z" fill-rule="evenodd" fill="#668EFF" fill-opacity="1"/></g><g><path d="M51.272550625,66.54546070098877L62.181640625,66.54546070098877C62.784140625,66.54546070098877,63.272540625,67.03387770098877,63.272540625,67.63637070098876C63.272540625,68.23886070098877,62.784140625,68.72728070098877,62.181640625,68.72728070098877L51.272550625,68.72728070098877C50.670057625,68.72728070098877,50.181640625,68.23886070098877,50.181640625,67.63637070098876C50.181640625,67.03387770098877,50.670057625,66.54546070098877,51.272550625,66.54546070098877Z" fill-rule="evenodd" fill="#668EFF" fill-opacity="1"/></g><g><path d="M42.544214375,68.72728070098877L40.362394375,68.72728070098877C39.759901375,68.72728070098877,39.271484375,68.23886070098877,39.271484375,67.63637070098876C39.271484375,67.03387770098877,39.759901375,66.54546070098877,40.362394375,66.54546070098877L42.544214375,66.54546070098877C43.146704375,66.54546070098877,43.635124375000004,67.03387770098877,43.635124375000004,67.63637070098876C43.635124375000004,68.23886070098877,43.146704375,68.72728070098877,42.544214375,68.72728070098877Z" fill-rule="evenodd" fill="#668EFF" fill-opacity="1"/></g></g><g><g transform="matrix(0.7071067690849304,0.7071067690849304,-0.7071067690849304,0.7071067690849304,70.49275149467542,-30.821460576654886)"><path d="M73.542081875,69.68154716491699L81.255971875,69.68154716491699C81.858461875,69.68154716491699,82.346881875,70.16996416491699,82.346881875,70.77245716491699C82.346881875,71.37494716491699,81.858461875,71.863367164917,81.255971875,71.863367164917L73.542081875,71.863367164917C72.939588875,71.863367164917,72.451171875,71.37494716491699,72.451171875,70.77245716491699C72.451171875,70.16996416491699,72.939588875,69.68154716491699,73.542081875,69.68154716491699Z" fill-rule="evenodd" fill="#668EFF" fill-opacity="1"/></g><g transform="matrix(0.7071067690849304,0.7071067690849304,-0.7071067690849304,0.7071067690849304,69.2258839637575,-49.307873523102444)"><path d="M99.1984725,60.136415764160155C99.2041725,60.09116576416016,99.2070325,60.04560576416016,99.2070325,60.00000576416016C99.2070325,59.397512764160155,98.7186125,58.909095764160156,98.1161225,58.909095764160156C97.5663725,58.909095764160156,97.1025225,59.31815976416016,97.0337725,59.86359276416016L94.14139648,82.81289576416016L94.14137483,82.81309576416015C94.13567222,82.85839576416015,94.1328125,82.90389576416015,94.1328125,82.94949576416016C94.1328125,83.55199576416015,94.6212295,84.04039576416015,95.2237225,84.04039576416015C95.7734725,84.04039576416015,96.2373225,83.63139576416016,96.3060725,83.08589576416016L96.3060925,83.08579576416015L99.1984725,60.136415764160155Z" fill-rule="evenodd" fill="#668EFF" fill-opacity="1"/></g></g><g><g><path d="M22.908023749999998,37.636364459991455L23.93937375,40.42319445999146L26.72620375,41.45454445999145L23.93937375,42.48589445999146L22.908023749999998,45.27272445999145L21.876673750000002,42.48589445999146L19.08984375,41.45454445999145L21.876673750000002,40.42319445999146L22.908023749999998,37.636364459991455Z" fill="#668EFF" fill-opacity="1"/></g><g><path d="M95.454370625,30.545454025268555L96.549820625,32.722724025268555L98.727090625,33.81818402526856L96.549820625,34.91363402526856L95.454370625,37.09091402526855L94.358910625,34.91363402526856L92.181640625,33.81818402526856L94.358910625,32.722724025268555L95.454370625,30.545454025268555Z" fill="#668EFF" fill-opacity="1"/></g><g><path d="M20.180933125,49.090911865234375L21.370083125,51.17448186523438L23.453653125,52.36364186523438L21.370083125,53.552791865234376L20.180933125,55.63637186523437L18.991773125,53.552791865234376L16.908203125,52.36364186523438L18.991773125,51.17448186523438L20.180933125,49.090911865234375Z" fill="#668EFF" fill-opacity="1"/></g><g><path d="M96.544214375,42.54545593261719L97.733364375,44.62902593261719L99.816934375,45.81818593261719L97.733364375,47.00733593261719L96.544214375,49.090915932617186L95.355054375,47.00733593261719L93.271484375,45.81818593261719L95.355054375,44.62902593261719L96.544214375,42.54545593261719Z" fill="#668EFF" fill-opacity="1"/></g></g></g></svg>