<svg xmlns="http://www.w3.org/2000/svg" xmlns:xlink="http://www.w3.org/1999/xlink" fill="none" version="1.1" width="12" height="12" viewBox="0 0 12 12"><defs><clipPath id="master_svg0_86_54937"><rect x="0" y="0" width="12" height="12" rx="0"/></clipPath></defs><g clip-path="url(#master_svg0_86_54937)"><g><path d="M6,0C2.69135,0,0,2.69135,0,6C0,9.30865,2.69135,12,6,12C9.30865,12,12,9.30865,12,6C12,2.69135,9.30865,0,6,0ZM6.43049,9.01335C6.43049,9.2514,6.23807,9.44384,6,9.44384C5.76193,9.44384,5.56951,9.25142,5.56951,9.01335L5.56951,5.13905C5.56951,4.901,5.76193,4.70856,6,4.70856C6.23805,4.70856,6.43049,4.90097,6.43049,5.13905L6.43049,9.01335ZM6,3.84763C5.64356,3.84763,5.35428,3.5579,5.35428,3.2019C5.35428,2.84505,5.64356,2.55618,6,2.55618C6.35644,2.55618,6.64572,2.84503,6.64572,3.2019C6.64572,3.5579,6.35644,3.84763,6,3.84763Z" fill="#2D5AFF" fill-opacity="1"/></g></g></svg>