<svg xmlns="http://www.w3.org/2000/svg" xmlns:xlink="http://www.w3.org/1999/xlink" fill="none" version="1.1" width="16" height="16" viewBox="0 0 16 16"><defs><clipPath id="master_svg0_190_80329"><rect x="0" y="0" width="16" height="16" rx="0"/></clipPath></defs><g clip-path="url(#master_svg0_190_80329)"><g><path d="M8,0C3.58846,0,0,3.58846,0,8C0,12.4115,3.58846,16,8,16C12.4115,16,16,12.4115,16,8C16,3.58846,12.4115,0,8,0ZM8.57399,12.0178C8.57399,12.3352,8.31743,12.5918,8,12.5918C7.68257,12.5918,7.42601,12.3352,7.42601,12.0178L7.42601,6.85206C7.42601,6.53466,7.68257,6.27808,8,6.27808C8.3174,6.27808,8.57399,6.53463,8.57399,6.85206L8.57399,12.0178ZM8,5.13017C7.52475,5.13017,7.13904,4.74387,7.13904,4.2692C7.13904,3.7934,7.52475,3.40824,8,3.40824C8.47525,3.40824,8.86096,3.79337,8.86096,4.2692C8.86096,4.74387,8.47525,5.13017,8,5.13017Z" fill="#62D65E" fill-opacity="1"/></g></g></svg>