<?xml version="1.0" standalone="no"?><!DOCTYPE svg PUBLIC "-//W3C//DTD SVG 1.1//EN" "http://www.w3.org/Graphics/SVG/1.1/DTD/svg11.dtd"><svg t="1688544725968" class="icon" viewBox="0 0 1024 1024" version="1.1" xmlns="http://www.w3.org/2000/svg" p-id="1055" xmlns:xlink="http://www.w3.org/1999/xlink" width="200" height="200"><path d="M512.14335999 81.70496a428.14464 428.14464 0 0 1 304.20992002 126.01344 428.288 428.288 0 0 1 125.94175999 304.13824001c0 58.13248-11.46880001 114.40128-33.90464 167.37279998a428.14464 428.14464 0 0 1-92.18048 136.76544A428.288 428.288 0 0 1 512 941.93664a428.21632001 428.21632001 0 0 1-304.20992-126.01344 428.14464 428.14464 0 0 1-126.01344-304.13824 428.21632001 428.21632001 0 0 1 126.01344-304.20992 428.21632001 428.21632001 0 0 1 304.35327999-125.87008z m0-71.68a501.76000001 501.76000001 0 1 0 0 1003.52 501.76000001 501.76000001 0 0 0 0-1003.52z m286.72000001 465.92h-250.87999999V225.28h-71.68000001v250.66496H225.28v71.67999999h251.02336v250.88000001h71.68000001v-250.88000001h250.87999999v-71.67999999z" p-id="1056"></path></svg>