<?xml version="1.0" standalone="no"?><!DOCTYPE svg PUBLIC "-//W3C//DTD SVG 1.1//EN" "http://www.w3.org/Graphics/SVG/1.1/DTD/svg11.dtd"><svg t="1688544769625" class="icon" viewBox="0 0 1024 1024" version="1.1" xmlns="http://www.w3.org/2000/svg" p-id="1997" xmlns:xlink="http://www.w3.org/1999/xlink" width="200" height="200"><path d="M861.9547 296.24329367c-29.621375-11.19333-242.260528-85.417397-326.654145-114.663386C360.02938 120.05071667 157.559777 27.80811767 126.368606 14.08946267a15.527333 15.527333 0 0 0-15.766215 1.979308 13.343269 13.343269 0 0 0-5.630792 8.770384c-11.261583 65.453683 14.298797 178.64965 76.68114 220.112749 37.77749 25.458002 286.658464 103.026417 388.388092 133.77395 3.139593 0.989654 1.501544 4.948271-1.02378 4.368129-105.790624-22.864425-383.815208-84.393617-389.445999-84.871381-5.630791-0.51189-9.725912 0.477764-13.786907 4.368129-3.412601 3.412601-4.880019 8.12199-4.095121 12.729001 13.786907 73.16616 86.407051 167.899957 149.744922 180.048816 37.333852 7.337092 191.651659 3.446727 255.603797 1.979309 3.037215 0 3.549105 3.890365 0.51189 4.368129-72.108254 9.760038-247.447681 35.149788-252.054693 36.139442a14.162293 14.162293 0 0 0-10.715566 7.78073 14.128167 14.128167 0 0 0 0 13.718655q10.715566 21.499385 41.906737 50.267609c68.525023 66.886975 143.124476 59.072119 162.030285 55.625392 29.280115-6.347437 57.843583-15.356703 85.315019-26.857168 2.115812-0.921402 3.651483 0.989654 3.139592 2.457073l-39.859177 136.640534a2.184064 2.184064 0 0 0 2.013435 2.968963l119.099766 1.02378c1.501544 0 2.525325 1.36504 2.047561 2.798333l-69.514678 215.335108c-1.02378 2.388821 2.593577 3.890365 4.095121 1.911056l261.200463-316.68935c1.02378-1.501544 0-3.480853-2.047561-3.480853h-124.218668c-2.04756 0-3.071341-1.911056-2.04756-3.412601 16.892374-26.345278 126.266228-199.125254 161.484268-265.978103 11.261583-19.110564 15.868594-46.41137 8.190242-66.886975-7.166462-20.475605-23.956457-36.617206-55.659519-48.800191v-0.034126z" p-id="1998"></path></svg>