<?xml version="1.0" standalone="no"?><!DOCTYPE svg PUBLIC "-//W3C//DTD SVG 1.1//EN" "http://www.w3.org/Graphics/SVG/1.1/DTD/svg11.dtd"><svg t="1688544735837" class="icon" viewBox="0 0 1024 1024" version="1.1" xmlns="http://www.w3.org/2000/svg" p-id="1189" xmlns:xlink="http://www.w3.org/1999/xlink" width="200" height="200"><path d="M940.91487428 453.44862686C936.48966692 217.26144017 753.33892063 26.44914085 528.51196775 26.44914085h-33.0239355c-224.89300076 0-407.97769917 190.81229932-412.40290653 426.99948601A131.76550265 131.76550265 0 0 0 16.6409675 567.38120434v66.047871c0 72.85080172 59.24494029 132.095742 132.095742 132.095742s132.095742-59.24494029 132.09574199-132.095742V567.38120434a132.16178987 132.16178987 0 0 0-130.84083244-131.96364626C162.93700176 244.07687579 312.73357319 92.49701185 495.48803225 92.49701185h33.0239355c182.82050693 0 332.61707836 151.57986394 345.4964132 342.92054623A132.16178987 132.16178987 0 0 0 743.16754851 567.38120434v66.047871c0 59.64122751 39.95896195 109.57341799 94.31635978 125.95328999a348.27042378 348.27042378 0 0 1-198.07756513 128.4631091 82.29564727 82.29564727 0 0 0-160.43027866 26.28705266c0 45.57303099 36.98680776 82.55983875 82.55983875 82.55983875 28.59872815 0 55.14997229-14.92681884 70.01074326-39.29848325a415.30901285 415.30901285 0 0 0 287.17614311-199.79480977A131.76550265 131.76550265 0 0 0 1007.3590325 633.42907534V567.38120434c0-48.87542454-26.94753137-91.08001411-66.44415822-113.93257748zM214.7845805 567.38120434v66.047871a66.11391887 66.11391887 0 0 1-132.095742 0V567.38120434a66.11391887 66.11391887 0 0 1 132.095742 0z m726.526581 66.047871a65.98182313 65.98182313 0 0 1-63.07571681 65.78367952l-2.57586696-1.25490955-0.85862232 1.45305316A66.047871 66.047871 0 0 1 809.2154195 633.42907534V567.38120434a66.11391887 66.11391887 0 0 1 132.095742 0v66.047871z" p-id="1190"></path></svg>