<?xml version="1.0" standalone="no"?><!DOCTYPE svg PUBLIC "-//W3C//DTD SVG 1.1//EN" "http://www.w3.org/Graphics/SVG/1.1/DTD/svg11.dtd"><svg t="1688544759668" class="icon" viewBox="0 0 1024 1024" version="1.1" xmlns="http://www.w3.org/2000/svg" p-id="1863" xmlns:xlink="http://www.w3.org/1999/xlink" width="200" height="200"><path d="M755.33653367 1010.0736H275.42186667c-28.330667 0-51.336533-23.005867-51.336533-51.336533V67.618133c0-28.330667 23.005867-51.3024 51.336533-51.3024h479.914667c28.330667 0 51.336533 22.971733 51.336533 51.3024v891.118934c0 28.330667-23.005867 51.336533-51.336533 51.336533z m-240.093867-51.336533c19.080533 0 34.235733-15.428267 34.235733-34.2016s-15.428267-34.235733-34.235733-34.235734c-18.773333 0-34.235733 15.428267-34.235733 34.235734 0 18.773333 15.428267 34.2016 34.235733 34.2016z m240.093867-839.7824H275.42186667v719.735466h479.6416V118.954667h0.273067z" p-id="1864"></path></svg>