<?xml version="1.0" standalone="no"?><!DOCTYPE svg PUBLIC "-//W3C//DTD SVG 1.1//EN" "http://www.w3.org/Graphics/SVG/1.1/DTD/svg11.dtd"><svg t="1688544775130" class="icon" viewBox="0 0 1024 1024" version="1.1" xmlns="http://www.w3.org/2000/svg" p-id="2131" xmlns:xlink="http://www.w3.org/1999/xlink" width="200" height="200"><path d="M711.9872 351.598933c5.188267 0 10.274133 0.1024 15.36 0.341334-26.965333-146.773333-178.551467-259.140267-361.540267-259.140267C163.7376 92.8 0 229.777067 0 398.737067c0 99.089067 56.285867 187.153067 143.598933 243.029333l3.345067 2.1504-35.362133 110.728533 132.232533-67.3792 6.2464 1.774934a431.786667 431.786667 0 0 0 140.322133 14.882133 237.397333 237.397333 0 0 1-11.605333-73.0112c0-154.248533 149.230933-279.313067 333.2096-279.313067zM493.090133 243.669333c28.398933 0 51.336533 22.254933 51.336534 49.732267 0 27.4432-22.9376 49.7664-51.336534 49.7664s-51.336533-22.3232-51.336533-49.7664c0-27.477333 22.9376-49.732267 51.336533-49.732267zM238.523733 343.133867c-28.398933 0-51.370667-22.3232-51.370666-49.7664 0-27.477333 22.971733-49.732267 51.370666-49.732267 28.398933 0 51.4048 22.254933 51.4048 49.732267 0 27.4432-23.005867 49.7664-51.4048 49.7664z" p-id="2132"></path><path d="M405.674667 632.721067c0 142.7456 138.376533 258.491733 309.077333 258.491733 34.167467 0 67.072-4.642133 97.792-13.243733q1.7408-0.443733 5.2224-1.501867l111.684267 56.9344-29.832534-93.525333 2.833067-1.809067c73.728-47.2064 121.309867-121.617067 121.309867-205.346133 0-142.711467-138.3424-258.423467-309.009067-258.423467-170.666667 0-309.077333 115.712-309.077333 258.423467z m373.179733-89.019734c0-23.176533 19.421867-41.984 43.383467-41.984 24.029867 0 43.4176 18.807467 43.4176 41.984 0 23.210667-19.387733 42.052267-43.4176 42.052267-23.9616 0-43.349333-18.807467-43.349334-42.052267z m-215.04 0c0-23.176533 19.421867-41.984 43.349333-41.984 23.995733 0 43.451733 18.807467 43.451734 41.984 0 23.210667-19.456 42.052267-43.4176 42.052267-23.9616 0-43.4176-18.807467-43.4176-42.052267z" p-id="2133"></path></svg>