<?xml version="1.0" standalone="no"?><!DOCTYPE svg PUBLIC "-//W3C//DTD SVG 1.1//EN" "http://www.w3.org/Graphics/SVG/1.1/DTD/svg11.dtd"><svg t="1688544748684" class="icon" viewBox="0 0 1024 1024" version="1.1" xmlns="http://www.w3.org/2000/svg" p-id="1593" xmlns:xlink="http://www.w3.org/1999/xlink" width="200" height="200"><path d="M295.9132448 221.76711147a43.69066667 43.69066667 0 0 1 43.69066667 43.7270752v182.19008a43.69066667 43.69066667 0 1 1-87.41774294 0V265.49418667a43.87271147 43.87271147 0 0 1 43.69066667-43.7270752z m431.0448352-4.25984c24.1026848 0 43.69066667 19.5151648 43.69066667 43.69066667v24.97649706a43.69066667 43.69066667 0 1 1-87.45415147 0V261.2707552a43.87271147 43.87271147 0 0 1 43.7634848-43.7270752z" p-id="1594"></path><path d="M511.45386667 89.49361814a171.81354667 171.81354667 0 0 1 171.8499552 171.8499552h87.38133333a259.23128853 259.23128853 0 0 0-518.42616853 0h87.38133333a171.81354667 171.81354667 0 0 1 171.8499552-171.8499552z m390.30328853 865.80337706V469.16551147a72.5629152 72.5629152 0 0 0-69.24970667-65.0626848H192.73045333c-39.97696 0-72.52650667 32.40391147-72.63573333 72.41728v473.89809813a72.85418667 72.85418667 0 0 0 61.7494752 62.4048352H844.7772448a72.81777813 72.81777813 0 0 0 56.9799104-57.4896352z" p-id="1595"></path><path d="M431.9004448 708.37191147a43.69066667 43.69066667 0 0 1 43.7270752-43.72707627h70.6332448a43.69066667 43.69066667 0 1 1 0 87.45415147H475.59111147A43.87271147 43.87271147 0 0 1 431.9004448 708.37191147z" p-id="1596"></path></svg>