<svg xmlns="http://www.w3.org/2000/svg" xmlns:xlink="http://www.w3.org/1999/xlink" fill="none" version="1.1" width="12" height="12" viewBox="0 0 12 12"><g><g></g><g><path d="M2.5,11.5251L5.5,11.5251Q5.54925,11.5251,5.59754,11.5155Q5.64584,11.5059,5.69134,11.487Q5.73684,11.4682,5.77778,11.4408Q5.81873,11.4135,5.85355,11.3787Q5.88838,11.3438,5.91573,11.3029Q5.94309,11.2619,5.96194,11.2164Q5.98078,11.1709,5.99039,11.1227Q6,11.0744,6,11.0251Q6,10.97586,5.99039,10.92756Q5.98078,10.87926,5.96194,10.83376Q5.94309,10.78826,5.91573,10.74732Q5.88838,10.70637,5.85355,10.67155Q5.81873,10.63673,5.77778,10.60937Q5.73684,10.58201,5.69134,10.56316Q5.64584,10.54432,5.59754,10.53471Q5.54925,10.52511,5.5,10.52511L2.5,10.52511L2.5,1.5L7.52695,1.5L9.5,3.69779L9.5,5.76192Q9.5,5.81117,9.50961,5.85947Q9.519210000000001,5.90777,9.53806,5.95327Q9.556899999999999,5.99876,9.58426,6.03971Q9.61162,6.08066,9.64645,6.11548Q9.68127,6.1503,9.72221,6.17766Q9.76316,6.20502,9.80866,6.22386Q9.85415,6.24271,9.90245,6.25232Q9.95075,6.26192,10,6.26192Q10.04924,6.26192,10.09754,6.25232Q10.14584,6.24271,10.19134,6.22386Q10.23684,6.20502,10.27778,6.17766Q10.31873,6.1503,10.35355,6.11548Q10.38837,6.08066,10.41573,6.03971Q10.44309,5.99876,10.46194,5.95327Q10.48078,5.90777,10.49039,5.85947Q10.5,5.81117,10.5,5.76192L10.5,3.50628Q10.5,3.4138,10.46692,3.32744Q10.43384,3.24107,10.37206,3.17226L8.122060000000001,0.6659809999999999Q8.05094,0.586754,7.9537,0.543377Q7.85647,0.5,7.75,0.5L2.5,0.5Q2.085419,0.5,1.79245,0.793704Q1.5,1.0868888,1.5,1.501255L1.5,10.52385Q1.5,10.93822,1.792452,11.2314Q2.0854183,11.5251,2.5,11.5251Z" fill-rule="evenodd" fill="#FFFFFF" fill-opacity="1"/></g><g><ellipse cx="7.75" cy="8.51884138584137" rx="1.5" ry="1.5037657022476196" fill-opacity="0" stroke-opacity="1" stroke="#FFFFFF" fill="none" stroke-width="1"/></g><g><path d="M9.937106,10.91381126953125L9.937175,10.91386126953125Q10.07427,11.023811269531251,10.25,11.023811269531251L10.25299,11.02380126953125Q10.36596,11.02313126953125,10.46766,10.97395126953125Q10.56937,10.92477126953125,10.64005,10.836641269531249Q10.75,10.69954126953125,10.75,10.523811269531251L10.74999,10.52082526953125Q10.74932,10.40785426953125,10.70014,10.30614826953125Q10.65096,10.20444126953125,10.56282,10.13376026953125L10.56276,10.13370426953125L9.312894,9.13130526953125L9.312825,9.13124926953125Q9.175734,9.02130126953125,9.000000220602,9.02130126953125L8.99701364,9.02131026953125Q8.884043,9.02198526953125,8.782336,9.07116526953125Q8.68063,9.12034526953125,8.609948,9.20847626953125Q8.5,9.34556726953125,8.5,9.52130126953125L8.500009,9.52428762953125Q8.500684,9.63725826953125,8.549864,9.73896526953125Q8.599044,9.84067126953125,8.687175,9.91135326953125L8.687244,9.91140926953125L9.937106,10.91381126953125Z" fill-rule="evenodd" fill="#FFFFFF" fill-opacity="1"/></g><g><path d="M7.5,4.00628L10,4.00628Q10.04925,4.00628,10.09754,3.99667Q10.14584,3.98706,10.19134,3.96822Q10.23684,3.94937,10.27778,3.92201Q10.31873,3.89465,10.35355,3.85983Q10.38837,3.82501,10.41573,3.78406Q10.44309,3.74311,10.46194,3.69762Q10.48078,3.65212,10.49039,3.60382Q10.5,3.55552,10.5,3.50628Q10.5,3.45703,10.49039,3.40873Q10.48078,3.36043,10.46194,3.31493Q10.44309,3.26944,10.41573,3.22849Q10.38837,3.18754,10.35355,3.15272Q10.31873,3.1179,10.27778,3.09054Q10.23684,3.06318,10.19134,3.04434Q10.14584,3.02549,10.09754,3.01588Q10.04925,3.00628,10,3.00628L8,3.00628L8,1Q8,0.9507543,7.990393,0.9024549Q7.980785,0.854155,7.96194,0.808658Q7.943094,0.763161,7.915735,0.722215Q7.888375,0.681269,7.853553,0.646447Q7.818731,0.611625,7.777785,0.584265Q7.736839,0.556906,7.691342,0.53806Q7.645845,0.519215,7.5975451,0.5096069999999999Q7.5492457,0.5,7.5,0.5Q7.4507543,0.5,7.4024549,0.5096069999999999Q7.354155,0.519215,7.308658,0.53806Q7.263161,0.556906,7.222215,0.584265Q7.181269,0.611625,7.146447,0.646447Q7.111625,0.681269,7.084265,0.722215Q7.056906,0.763161,7.03806,0.808658Q7.019215,0.854155,7.009607,0.9024549Q7,0.9507543,7,1L7,3.50628Q7,3.55552,7.009607,3.60382Q7.019215,3.65212,7.03806,3.69762Q7.056906,3.74312,7.084265,3.78406Q7.111625,3.82501,7.146447,3.85983Q7.181269,3.89465,7.222215,3.92201Q7.263161,3.94937,7.308658,3.96822Q7.354155,3.98706,7.4024549,3.99667Q7.4507543,4.00628,7.5,4.00628Z" fill-rule="evenodd" fill="#FFFFFF" fill-opacity="1"/></g></g></svg>