<svg xmlns="http://www.w3.org/2000/svg" xmlns:xlink="http://www.w3.org/1999/xlink" fill="none" version="1.1" width="12" height="12" viewBox="0 0 12 12"><g><g></g><g><path d="M6,6.51255L7.25,6.51255Q7.34962,6.51255,7.44163,6.47437Q7.53364,6.43619,7.604,6.36566L11.354,2.60625Q11.38872,2.57144,11.416,2.5305299999999997Q11.44327,2.48963,11.462060000000001,2.44419Q11.48085,2.3987499999999997,11.49042,2.35053Q11.5,2.3023,11.5,2.25314Q11.5,2.20397,11.49042,2.1557500000000003Q11.48085,2.10752,11.462060000000001,2.06209Q11.44327,2.0166500000000003,11.416,1.975744Q11.38872,1.934838,11.354,1.900028L10.104,0.64689L10.103110000000001,0.646004Q10.0327,0.575766,9.940760000000001,0.537821Q9.84883,0.499876,9.749369999999999,0.5Q9.64992,0.5001249999999999,9.55808,0.5383009999999999Q9.466239999999999,0.576476,9.396,0.64689L5.646004,4.4063Q5.575881,4.4765999999999995,5.53794,4.56836Q5.5,4.66012,5.5,4.75941L5.5,6.01255Q5.5,6.0618,5.509607,6.1101Q5.519215,6.1584,5.53806,6.20389Q5.556906,6.24939,5.584265,6.29034Q5.611625,6.33128,5.646447,6.36611Q5.681269,6.40093,5.722215,6.42829Q5.763161,6.45565,5.808658,6.47449Q5.854155,6.49334,5.9024549,6.50295Q5.9507543,6.51255,6,6.51255ZM7.04253,5.51255L6.5,5.51255L6.5,4.96615L9.75,1.707995L10.29378,2.25314L7.04253,5.51255Z" fill-rule="evenodd" fill="#FFFFFF" fill-opacity="1"/></g><g><path d="M9.75,10.525062207031251L4.5,10.525062207031251Q4.45075,10.525062207031251,4.40245,10.53467220703125Q4.354150000000001,10.54428220703125,4.30866,10.563122207031249Q4.26316,10.58197220703125,4.2222100000000005,10.609332207031251Q4.18127,10.636692207031249,4.14645,10.671512207031249Q4.11162,10.706332207031249,4.0842600000000004,10.747282207031251Q4.05691,10.78822220703125,4.03806,10.83372220703125Q4.01921,10.879222207031251,4.00961,10.927522207031249Q4,10.97582220703125,4,11.025062207031251Q4,11.07431220703125,4.00961,11.12261220703125Q4.01921,11.17091220703125,4.03806,11.216402207031251Q4.05691,11.26190220703125,4.0842600000000004,11.30285220703125Q4.11162,11.34379220703125,4.14645,11.378622207031249Q4.18127,11.413442207031249,4.2222100000000005,11.44080220703125Q4.26316,11.46816220703125,4.30866,11.48700220703125Q4.354150000000001,11.50585220703125,4.40245,11.51546220703125Q4.45075,11.525062207031251,4.5,11.525062207031251L9.75,11.525062207031251Q10.47524,11.525062207031251,10.98788,11.011132207031249Q11.5,10.49773220703125,11.5,9.771922207031249Q11.5,9.04612220703125,10.98788,8.532712207031249Q10.47523,8.01879220703125,9.75,8.01879220703125L2.25,8.01879220703125Q1.9397090000000001,8.01879220703125,1.7201140000000001,7.79864220703125Q1.5,7.57797220703125,1.5,7.26565220703125Q1.5,6.95332620703125,1.7201140000000001,6.73265920703125Q1.9397090000000001,6.51251220703125,2.25,6.51251220703125L4,6.51251220703125Q4.04925,6.51251220703125,4.09754,6.50290520703125Q4.14584,6.49329720703125,4.19134,6.47445220703125Q4.23684,6.45560620703125,4.27778,6.42824720703125Q4.31873,6.40088720703125,4.35355,6.36606520703125Q4.38837,6.33124320703125,4.41573,6.29029720703125Q4.44309,6.24935120703125,4.46194,6.20385420703125Q4.48078,6.15835720703125,4.49039,6.11005730703125Q4.5,6.06175790703125,4.5,6.01251220703125Q4.5,5.96326650703125,4.49039,5.91496710703125Q4.48078,5.86666720703125,4.46194,5.82117020703125Q4.44309,5.77567320703125,4.41573,5.73472720703125Q4.38837,5.69378120703125,4.35355,5.65895920703125Q4.31873,5.62413720703125,4.27778,5.59677720703125Q4.23684,5.56941820703125,4.19134,5.55057220703125Q4.14584,5.53172720703125,4.09754,5.52211920703125Q4.04925,5.51251220703125,4,5.51251220703125L2.25,5.51251220703125Q1.5247600000000001,5.51251220703125,1.01212,6.02644080703125Q0.5,6.53984820703125,0.5,7.26565220703125Q0.5,7.99145220703125,1.01212,8.50486220703125Q1.5247600000000001,9.01879220703125,2.25,9.01879220703125L9.75,9.01879220703125Q10.06029,9.01879220703125,10.27988,9.238932207031251Q10.5,9.45960220703125,10.5,9.771922207031249Q10.5,10.08425220703125,10.27988,10.30491220703125Q10.06029,10.525062207031251,9.75,10.525062207031251Z" fill-rule="evenodd" fill="#FFFFFF" fill-opacity="1"/></g></g></svg>