<svg xmlns="http://www.w3.org/2000/svg" xmlns:xlink="http://www.w3.org/1999/xlink" fill="none" version="1.1" width="12" height="12" viewBox="0 0 12 12"><g><g></g><g transform="matrix(0.7062196731567383,0.7079927325248718,-0.7062197327613831,0.7079927325248718,3.2851175433024764,-5.922979717550334)"><path d="M8.2783203125,3.75345L8.2783203125,2.7522Q8.2783203125,1.819307,8.9379743125,1.159654Q9.5976273125,0.5,10.5305203125,0.5Q11.4634103125,0.5,12.1230603125,1.159654Q12.7827203125,1.819307,12.7827203125,2.7522L12.7827203125,3.75345Q12.7827203125,4.6863399999999995,12.1230603125,5.346Q11.4634103125,6.00565,10.5305203125,6.00565Q9.5976273125,6.00565,8.9379743125,5.346Q8.2783203125,4.68635,8.2783203125,3.75345ZM9.2783203125,3.75345Q9.2783203125,4.272130000000001,9.6450803125,4.63889Q10.0118403125,5.00565,10.5305203125,5.00565Q11.0492003125,5.00565,11.415960312500001,4.63889Q11.7827203125,4.272130000000001,11.7827203125,3.75345L11.7827203125,2.7522Q11.7827203125,2.23352,11.415960312500001,1.86676Q11.0492003125,1.5,10.5305203125,1.5Q10.0118403125,1.5,9.6450803125,1.86676Q9.2783203125,2.23352,9.2783203125,2.7522L9.2783203125,3.75345Z" fill="#FFFFFF" fill-opacity="1"/></g><g transform="matrix(0.7062196731567383,0.7079927325248718,-0.7062197327613831,0.7079927325248718,5.188771248755074,-1.3230741196857707)"><path d="M3.681640625,8.36117705078125L3.681640625,7.35992705078125Q3.681640625,6.42703405078125,4.341294625,5.76738105078125Q5.000947625,5.10772705078125,5.933840625,5.10772705078125Q6.866730625000001,5.10772705078125,7.526380625,5.76738105078125Q8.186040625,6.42703405078125,8.186040625,7.35992705078125L8.186040625,8.36117705078125Q8.186040625,9.29406705078125,7.526380625,9.95372705078125Q6.866730625000001,10.61337705078125,5.933840625,10.61337705078125Q5.000947625,10.61337705078125,4.341294625,9.95372705078125Q3.681640625,9.294077050781251,3.681640625,8.36117705078125ZM4.681640625,8.36117705078125Q4.681640625,8.87985705078125,5.048400625,9.24661705078125Q5.415160625,9.61337705078125,5.933840625,9.61337705078125Q6.452520625,9.61337705078125,6.819280625,9.24661705078125Q7.186040625,8.87985705078125,7.186040625,8.36117705078125L7.186040625,7.35992705078125Q7.186040625,6.84124705078125,6.819280625,6.47448705078125Q6.452520625,6.10772705078125,5.933840625,6.10772705078125Q5.415160625,6.10772705078125,5.048400625,6.47448705078125Q4.681640625,6.84124705078125,4.681640625,7.35992705078125L4.681640625,8.36117705078125Z" fill="#FFFFFF" fill-opacity="1"/></g><g><path d="M8.248825,4.72032946484375L8.248925,4.72023746484375Q8.249845,4.71931346484375,8.250755,4.71838446484375Q8.320035,4.64820246484375,8.357485,4.55697246484375Q8.394925,4.46574186484375,8.394925,4.367126464843804Q8.394925,4.26750776484375,8.356745,4.17549646484375Q8.318565,4.08348446484375,8.248035,4.01313146484375Q8.245965,4.01106646484375,8.243875,4.00902646484375Q8.173845,3.94078946484375,8.083275,3.90395846484375Q7.992705,3.86712646484375,7.894925000000001,3.86712646484375L7.894295,3.86712646484375Q7.8721049999999995,3.86715446484375,7.849995,3.86914946484375Q7.872415,3.86712646484375,7.894925000000001,3.86712646484375L8.248825,4.72032946484375Z" fill-rule="evenodd" fill="#FFFFFF" fill-opacity="1"/></g></g></svg>