<svg xmlns="http://www.w3.org/2000/svg" xmlns:xlink="http://www.w3.org/1999/xlink" fill="none" version="1.1" width="12" height="12" viewBox="0 0 12 12"><g><g></g><g><path d="M9.625,10.274478125L8,10.274478125Q7.9507543,10.274478125,7.9024549,10.284088125Q7.854155,10.293698125,7.808658,10.312538125Q7.763161,10.331388125,7.722215,10.358748125Q7.681269,10.386108125,7.646447,10.420928125Q7.611625,10.455748125,7.584265,10.496698125Q7.556906,10.537648125,7.53806,10.583138125Q7.519215,10.628638125,7.509607,10.676938125Q7.5,10.725238125,7.5,10.774478125Q7.5,10.823728125,7.509607,10.872028125Q7.519215,10.920328125000001,7.53806,10.965828125Q7.556906,11.011318124999999,7.584265,11.052268125Q7.611625,11.093218125,7.646447,11.128038125Q7.681269,11.162858125,7.722215,11.190218125Q7.763161,11.217578125,7.808658,11.236418125Q7.854155,11.255268125,7.9024549,11.264878125Q7.9507543,11.274478125,8,11.274478125L9.625,11.274478125Q10.03959,11.274478125,10.33255,10.980778125Q10.625,10.687598125000001,10.625,10.273228125L10.625,8.017578125Q10.625,7.968332425,10.61539,7.920033025Q10.60578,7.871733125,10.58694,7.826236125Q10.56809,7.780739125,10.54073,7.739793125Q10.51338,7.698847125,10.47855,7.664025125Q10.44373,7.629203125,10.40278,7.601843125Q10.36184,7.574484125,10.31634,7.555638125Q10.27084,7.536793125,10.22255,7.527185125Q10.17425,7.517578125,10.125,7.517578125Q10.07575,7.517578125,10.02745,7.527185125Q9.97915,7.536793125,9.93366,7.555638125Q9.88816,7.574484125,9.84721,7.601843125Q9.80627,7.629203125,9.77145,7.664025125Q9.73662,7.698847125,9.70926,7.739793125Q9.68191,7.780739125,9.66306,7.826236125Q9.64421,7.871733125,9.63461,7.920033025Q9.625,7.968332425,9.625,8.017578125L9.625,10.274478125Z" fill-rule="evenodd" fill="#FFFFFF" fill-opacity="1"/></g><g><path d="M2.5,11.5251L4,11.5251Q4.04925,11.5251,4.09754,11.5155Q4.14584,11.5059,4.19134,11.487Q4.23684,11.4682,4.27778,11.4408Q4.31873,11.4135,4.35355,11.3787Q4.38838,11.3438,4.41573,11.3029Q4.44309,11.2619,4.46194,11.2164Q4.48078,11.1709,4.49039,11.1227Q4.5,11.0744,4.5,11.0251Q4.5,10.97586,4.49039,10.92756Q4.48078,10.87926,4.46194,10.83376Q4.44309,10.78826,4.41573,10.74732Q4.38838,10.70637,4.35355,10.67155Q4.31873,10.63673,4.2777899999999995,10.60937Q4.23684,10.58201,4.19134,10.56316Q4.14584,10.54432,4.09754,10.53471Q4.04925,10.52511,4,10.52511L2.5,10.52511L2.5,1.5L9.5,1.5L9.5,4.00753Q9.5,4.05678,9.50961,4.10508Q9.519210000000001,4.15338,9.53806,4.198869999999999Q9.556899999999999,4.24437,9.58426,4.2853200000000005Q9.61162,4.3262599999999996,9.64645,4.361079999999999Q9.68127,4.395910000000001,9.72221,4.4232700000000005Q9.76316,4.45063,9.80866,4.469469999999999Q9.85415,4.48832,9.90245,4.497920000000001Q9.95075,4.50753,10,4.50753Q10.04924,4.50753,10.09754,4.497920000000001Q10.14584,4.48832,10.19134,4.469469999999999Q10.23684,4.45063,10.27778,4.4232700000000005Q10.31873,4.395910000000001,10.35355,4.361079999999999Q10.38837,4.3262599999999996,10.41573,4.2853200000000005Q10.44309,4.24437,10.46194,4.198869999999999Q10.48078,4.15338,10.49039,4.10508Q10.5,4.05678,10.5,4.00753L10.5,1.501255Q10.5,1.0868891999999999,10.20755,0.793706Q9.91459,0.5,9.5,0.5L2.5,0.5Q2.085419,0.5,1.79245,0.793704Q1.5,1.0868888,1.5,1.501255L1.5,10.52385Q1.5,10.93822,1.792452,11.2314Q2.0854183,11.5251,2.5,11.5251Z" fill-rule="evenodd" fill="#FFFFFF" fill-opacity="1"/></g><g><path d="M4,4.50750732421875L7.5,4.50750732421875Q7.54925,4.50750732421875,7.59754,4.49790032421875Q7.64584,4.48829232421875,7.69134,4.46944732421875Q7.73684,4.45060132421875,7.77778,4.42324232421875Q7.81873,4.39588232421875,7.85355,4.36106032421875Q7.88838,4.32623832421875,7.91573,4.28529232421875Q7.94309,4.24434632421875,7.96194,4.19884932421875Q7.98078,4.15335232421875,7.99039,4.10505242421875Q8,4.05675302421875,8,4.00750732421875Q8,3.95826162421875,7.99039,3.90996222421875Q7.98078,3.86166232421875,7.96194,3.81616532421875Q7.94309,3.77066832421875,7.91573,3.72972232421875Q7.88838,3.68877632421875,7.85355,3.65395432421875Q7.81873,3.61913232421875,7.77778,3.59177232421875Q7.73684,3.56441332421875,7.69134,3.5455673242187498Q7.64584,3.52672232421875,7.59754,3.51711432421875Q7.54925,3.50750732421875,7.5,3.50750732421875L4,3.50750732421875Q3.9507543,3.50750732421875,3.9024549,3.51711432421875Q3.854155,3.52672232421875,3.808658,3.5455673242187498Q3.763161,3.56441332421875,3.722215,3.59177232421875Q3.681269,3.61913232421875,3.646447,3.65395432421875Q3.611625,3.68877632421875,3.584265,3.72972232421875Q3.556906,3.77066832421875,3.5380599999999998,3.81616532421875Q3.519215,3.86166232421875,3.509607,3.90996222421875Q3.5,3.95826162421875,3.5,4.00750732421875Q3.5,4.05675302421875,3.509607,4.10505242421875Q3.519215,4.15335232421875,3.5380599999999998,4.19884932421875Q3.556906,4.24434632421875,3.584265,4.28529232421875Q3.611625,4.32623832421875,3.646447,4.36106032421875Q3.681269,4.39588232421875,3.722215,4.42324232421875Q3.763161,4.45060132421875,3.808658,4.46944732421875Q3.854155,4.48829232421875,3.9024549,4.49790032421875Q3.9507543,4.50750732421875,4,4.50750732421875Z" fill-rule="evenodd" fill="#FFFFFF" fill-opacity="1"/></g><g><path d="M10.63874,5.324466765625L10.639009999999999,5.324131765625Q10.75,5.186680765625,10.75,5.010011128395L10.74998,5.005215705625Q10.749749999999999,4.981069365625,10.74719,4.957057665625Q10.73666,4.858160765625,10.68908,4.770822765625Q10.6415,4.683484765625,10.564119999999999,4.6210017656249995Q10.42667,4.510010765625,10.25,4.510009765625L10.24868,4.510011765625Q10.13571,4.510309765625,10.03384,4.559150765625Q9.93197,4.607992765625,9.860990000000001,4.695887765625L5.6109919999999995,9.959069765625Q5.5,10.096519765625,5.5,10.273189765625L5.500002,10.274509765625Q5.5003,10.387479765624999,5.549141,10.489349765625Q5.597983,10.591219765624999,5.685878,10.662199765625001Q5.82333,10.773189765625,6,10.773189765625L6.00479385,10.773169765625Q6.0289402,10.772939765625,6.0529519,10.770379765625Q6.151849,10.759849765624999,6.239187,10.712269765624999Q6.326525,10.664689765624999,6.3890080000000005,10.587309765625001L10.63874,5.324466765625Z" fill-rule="evenodd" fill="#FFFFFF" fill-opacity="1"/></g><g><path d="M4,6.5125732421875L6,6.5125732421875Q6.04925,6.5125732421875,6.09754,6.5029662421875Q6.14584,6.4933582421875,6.19134,6.4745132421875Q6.23684,6.4556672421875,6.27778,6.4283082421875Q6.31873,6.4009482421875,6.35355,6.3661262421875Q6.38838,6.3313042421875,6.41573,6.2903582421875Q6.44309,6.2494122421875,6.46194,6.2039152421875Q6.48078,6.1584182421875,6.49039,6.1101183421875Q6.5,6.0618189421875,6.5,6.0125732421875Q6.5,5.9633275421875,6.49039,5.9150281421875Q6.48078,5.8667282421875,6.46194,5.8212312421875Q6.44309,5.7757342421875,6.41573,5.7347882421875Q6.38838,5.6938422421875,6.35355,5.6590202421875Q6.31873,5.6241982421875,6.2777899999999995,5.5968382421875Q6.23684,5.5694792421875,6.19134,5.5506332421875Q6.14584,5.5317882421875,6.09754,5.5221802421875Q6.04925,5.5125732421875,6,5.5125732421875L4,5.5125732421875Q3.9507543,5.5125732421875,3.9024549,5.5221802421875Q3.854155,5.5317882421875,3.808658,5.5506332421875Q3.763161,5.5694792421875,3.722215,5.5968382421875Q3.681269,5.6241982421875,3.646447,5.6590202421875Q3.611625,5.6938422421875,3.584265,5.7347882421875Q3.556906,5.7757342421875,3.5380599999999998,5.8212312421875Q3.519215,5.8667282421875,3.509607,5.9150281421875Q3.5,5.9633275421875,3.5,6.0125732421875Q3.5,6.0618189421875,3.509607,6.1101183421875Q3.519215,6.1584182421875,3.5380599999999998,6.2039152421875Q3.556906,6.2494122421875,3.584265,6.2903582421875Q3.611625,6.3313042421875,3.646447,6.3661262421875Q3.681269,6.4009482421875,3.722215,6.4283082421875Q3.763161,6.4556672421875,3.808658,6.4745132421875Q3.854155,6.4933582421875,3.9024549,6.5029662421875Q3.9507543,6.5125732421875,4,6.5125732421875Z" fill-rule="evenodd" fill="#FFFFFF" fill-opacity="1"/></g></g></svg>