<!-- Generated by IcoMoon.io -->
<svg version="1.1" xmlns="http://www.w3.org/2000/svg" width="32" height="32" viewBox="0 0 32 32">
<title>ixintucom</title>
<path fill="#666" d="M7.744 29.191c-0.342 0.359-0.913 0.368-1.266 0.020s-0.354-0.918-0.001-1.266l1.869-1.902c0.344-0.35 0.907-0.355 1.257-0.010s0.355 0.907 0.010 1.257l-1.869 1.901zM3.294 29.363c-0.349 0.337-0.903 0.332-1.246-0.011s-0.348-0.897-0.011-1.246l4.277-4.278c0.345-0.357 0.917-0.362 1.268-0.011s0.346 0.923-0.011 1.268l-4.277 4.278zM3.3 25.381c-0.344 0.349-0.907 0.354-1.257 0.010s-0.355-0.907-0.011-1.257l2.492-2.534c0.34-0.368 0.918-0.383 1.276-0.032s0.355 0.929-0.007 1.276l-2.492 2.537zM24.848 20.791c0.405 4.032-1.022 6.983-4.252 8.673-1.934 1.012-3.607 0.928-5.114 0.159-0.3-0.153-0.764-0.439-0.716-0.422-0.78-0.265-0.914-0.953-0.706-1.669 0.096-0.334 0.259-0.68 0.539-1.196l0.080-0.149 0.049-0.088c-0.165 0.024-0.35 0.054-0.564 0.091-1.605 0.279-1.927 0.306-2.533-0.011-2.139-1.118-5.093-4.068-5.472-4.987-0.248-0.599-0.335-1.299-0.31-2.116 0.015-0.48 0.064-0.955 0.151-1.57l0.056-0.379c-0.124 0.076-0.258 0.169-0.429 0.295-0.051 0.037-0.347 0.257-0.432 0.318-0.178 0.129-0.317 0.222-0.453 0.3-0.621 0.356-1.254 0.424-1.681-0.28-1.090-1.799-1.14-2.838-0.57-5.251 0.879-3.724 3.864-5.441 8.641-5.138 2.624-2.459 5.397-4.082 8.317-4.855 2.985-0.79 6.145-0.948 9.474-0.475 0.392 0.047 0.706 0.346 0.772 0.735 1.409 7.33-0.206 13.369-4.846 18.012zM19.904 4.237c-2.719 0.72-5.327 2.278-7.828 4.691l-0.291 0.28-0.403-0.034c-4.213-0.359-6.487 0.884-7.162 3.745-0.396 1.673-0.441 2.36 0.024 3.316l0.332-0.246c0.183-0.135 0.371-0.264 0.564-0.384 0.927-0.572 1.765-0.716 2.468-0.013 0.336 0.336 0.348 0.592 0.286 1.191-0.012 0.126-0.031 0.266-0.060 0.462l-0.075 0.514c-0.071 0.455-0.116 0.913-0.135 1.373-0.018 0.587 0.041 1.054 0.176 1.383 0.208 0.503 2.862 3.153 4.653 4.089 0.071 0.037 0.397 0.010 1.405-0.165 0.684-0.119 1.12-0.176 1.6-0.194 0.164-0.006 0.325-0.006 0.483 0 0.531 0.023 0.942 0.406 0.994 0.933 0.026 0.252-0.027 0.477-0.131 0.742-0.108 0.276-0.162 0.379-0.566 1.118l-0.077 0.142c-0.11 0.199-0.212 0.403-0.306 0.61 0.188 0.108 0.366 0.215 0.435 0.249 1.022 0.523 2.092 0.575 3.481-0.151 2.651-1.387 3.727-3.756 3.262-7.312l-0.059-0.444 0.324-0.312c4.299-4.124 5.884-9.456 4.758-16.096-2.871-0.338-5.587-0.166-8.155 0.514zM20.888 16c-2.7 0-4.889-2.189-4.889-4.889s2.189-4.889 4.889-4.889c2.7 0 4.889 2.189 4.889 4.889s-2.189 4.889-4.889 4.889zM20.888 14.222c1.718 0 3.111-1.393 3.111-3.111s-1.393-3.111-3.111-3.111c-1.718 0-3.111 1.393-3.111 3.111s1.393 3.111 3.111 3.111z"></path>
<path fill="#666" d="M7.744 29.191c-0.342 0.359-0.913 0.368-1.266 0.020s-0.354-0.918-0.001-1.266l1.869-1.902c0.344-0.35 0.907-0.355 1.257-0.010s0.355 0.907 0.010 1.257l-1.869 1.901zM3.294 29.363c-0.349 0.337-0.903 0.332-1.246-0.011s-0.348-0.897-0.011-1.246l4.277-4.278c0.345-0.357 0.917-0.362 1.268-0.011s0.346 0.923-0.011 1.268l-4.277 4.278zM3.3 25.381c-0.344 0.349-0.907 0.354-1.257 0.010s-0.355-0.907-0.011-1.257l2.492-2.534c0.34-0.368 0.918-0.383 1.276-0.032s0.355 0.929-0.007 1.276l-2.492 2.537zM24.848 20.791c0.405 4.032-1.022 6.983-4.252 8.673-1.934 1.012-3.607 0.928-5.114 0.159-0.3-0.153-0.764-0.439-0.716-0.422-0.78-0.265-0.914-0.953-0.706-1.669 0.096-0.334 0.259-0.68 0.539-1.196l0.080-0.149 0.049-0.088c-0.165 0.024-0.35 0.054-0.564 0.091-1.605 0.279-1.927 0.306-2.533-0.011-2.139-1.118-5.093-4.068-5.472-4.987-0.248-0.599-0.335-1.299-0.31-2.116 0.015-0.48 0.064-0.955 0.151-1.57l0.056-0.379c-0.124 0.076-0.258 0.169-0.429 0.295-0.051 0.037-0.347 0.257-0.432 0.318-0.178 0.129-0.317 0.222-0.453 0.3-0.621 0.356-1.254 0.424-1.681-0.28-1.090-1.799-1.14-2.838-0.57-5.251 0.879-3.724 3.864-5.441 8.641-5.138 2.624-2.459 5.397-4.082 8.317-4.855 2.985-0.79 6.145-0.948 9.474-0.475 0.392 0.047 0.706 0.346 0.772 0.735 1.409 7.33-0.206 13.369-4.846 18.012zM19.904 4.237c-2.719 0.72-5.327 2.278-7.828 4.691l-0.291 0.28-0.403-0.034c-4.213-0.359-6.487 0.884-7.162 3.745-0.396 1.673-0.441 2.36 0.024 3.316l0.332-0.246c0.183-0.135 0.371-0.264 0.564-0.384 0.927-0.572 1.765-0.716 2.468-0.013 0.336 0.336 0.348 0.592 0.286 1.191-0.012 0.126-0.031 0.266-0.060 0.462l-0.075 0.514c-0.071 0.455-0.116 0.913-0.135 1.373-0.018 0.587 0.041 1.054 0.176 1.383 0.208 0.503 2.862 3.153 4.653 4.089 0.071 0.037 0.397 0.010 1.405-0.165 0.684-0.119 1.12-0.176 1.6-0.194 0.164-0.006 0.325-0.006 0.483 0 0.531 0.023 0.942 0.406 0.994 0.933 0.026 0.252-0.027 0.477-0.131 0.742-0.108 0.276-0.162 0.379-0.566 1.118l-0.077 0.142c-0.11 0.199-0.212 0.403-0.306 0.61 0.188 0.108 0.366 0.215 0.435 0.249 1.022 0.523 2.092 0.575 3.481-0.151 2.651-1.387 3.727-3.756 3.262-7.312l-0.059-0.444 0.324-0.312c4.299-4.124 5.884-9.456 4.758-16.096-2.871-0.338-5.587-0.166-8.155 0.514z"></path>
<path fill="#666" d="M24.952 20.828q6.967-7.003 4.84-18.067-0.124-0.729-0.856-0.816-5.019-0.713-9.514 0.477-4.378 1.159-8.329 4.849-7.363-0.45-8.701 5.217-0.44 1.865-0.34 2.888 0.108 1.095 0.921 2.437 0.609 1.006 1.816 0.315 0.191-0.109 0.463-0.306l0.209-0.153 0.223-0.165q0.129-0.095 0.239-0.17l-0.024 0.159q-0.132 0.929-0.152 1.581-0.039 1.294 0.318 2.157 0.32 0.777 2.1 2.453 1.901 1.791 3.418 2.584 0.465 0.243 0.939 0.24 0.409-0.002 1.658-0.219 0.197-0.035 0.362-0.061l-0.032 0.060q-0.42 0.775-0.547 1.216-0.4 1.378 0.746 1.783l0.001 0.001q0.016 0.012 0.050 0.034 0.069 0.044 0.181 0.112 0.288 0.172 0.495 0.278 2.48 1.266 5.206-0.16 4.908-2.568 4.309-8.724zM14.799 29.106q-0.993-0.337-0.642-1.546 0.121-0.421 0.531-1.177l0.080-0.15 0.146-0.263-0.2 0.029q-0.238 0.035-0.566 0.092-1.233 0.214-1.625 0.216-0.424 0.002-0.845-0.217-1.492-0.78-3.374-2.552-1.748-1.646-2.052-2.384-0.341-0.823-0.303-2.074 0.020-0.641 0.15-1.559l0.087-0.591-0.183 0.113q-0.181 0.112-0.436 0.3l-0.223 0.165-0.208 0.153q-0.262 0.19-0.444 0.293-1.038 0.594-1.546-0.245-0.79-1.304-0.893-2.353-0.098-0.99 0.335-2.823 1.303-5.52 8.537-5.061l0.043 0.003 0.032-0.030q3.928-3.68 8.275-4.831 4.456-1.18 9.434-0.472 0.589 0.071 0.687 0.653l0 0.002q2.112 10.987-4.819 17.923l-0.033 0.034 0.005 0.047q0.609 6.059-4.198 8.574-2.634 1.377-5.022 0.159-0.201-0.102-0.483-0.271-0.11-0.066-0.175-0.108-0.029-0.019-0.039-0.026 0.006 0.005 0.014 0.016 0.022 0.031 0.017 0.070-0.010 0.078-0.089 0.086-0.021 0.002-0.039-0.004l0.065-0.189-0.001-0zM28.145 3.633l0.012 0.074c1.127 6.646-0.547 12.265-4.787 16.185l-0.288 0.277 0.052 0.394c0.463 3.544-0.642 6.015-3.315 7.414-1.275 0.667-2.466 0.718-3.571 0.152-0.035-0.017-0.13-0.071-0.285-0.162-0.068-0.040-0.134-0.112-0.155-0.090l-0.078-0.045 0.037-0.082c0.095-0.21 0.224-0.463 0.309-0.616l0.077-0.143c0.3-0.549 0.487-0.918 0.561-1.107 0.103-0.263 0.145-0.495 0.124-0.696-0.053-0.538-0.352-0.819-0.898-0.843-0.155-0.006-0.313-0.006-0.475 0-0.408 0.015-0.936 0.079-1.587 0.192-0.884 0.154-1.374 0.205-1.469 0.155-0.819-0.428-1.8-1.169-2.942-2.222-1.040-0.959-1.625-1.598-1.758-1.918-0.141-0.342-0.202-0.818-0.183-1.425 0.019-0.464 0.090-1.096 0.136-1.384l0.075-0.514c0.029-0.2 0.049-0.353 0.059-0.458 0.053-0.515-0.032-0.885-0.257-1.11-0.585-0.585-1.367-0.576-2.344 0.027-0.191 0.119-0.537 0.316-0.557 0.38l-0.429 0.318-0.053-0.108c-0.232-0.478-0.347-0.955-0.345-1.433 0.002-0.426 0.107-1.075 0.313-1.949 0.684-2.902 3.312-4.249 7.267-3.822l0.358 0.030 0.258-0.249c2.506-2.418 5.13-3.989 7.871-4.715 2.58-0.683-4.047-2.063 8.192-0.516l0.074 0.009zM27.973 3.814q-4.244-0.487-8.043 0.52-4.063 1.076-7.784 4.666l-0.323 0.311-0.448-0.038q-6.069-0.517-7.056 3.668-0.305 1.289-0.308 1.904t0.274 1.235l0.234-0.173q0.277-0.206 0.57-0.388 1.602-0.989 2.591 0.001 0.405 0.405 0.315 1.272-0.016 0.161-0.060 0.466l-0.075 0.514q-0.106 0.678-0.134 1.363-0.026 0.867 0.169 1.341 0.181 0.438 1.708 1.846 1.694 1.562 2.899 2.192 0.083 0.043 1.342-0.175 0.989-0.172 1.613-0.195 0.251-0.010 0.49 0 0.993 0.043 1.089 1.023 0.036 0.348-0.137 0.789-0.115 0.295-0.572 1.13l-0.077 0.142q-0.141 0.256-0.265 0.521 0.035 0.020 0.077 0.045 0.227 0.133 0.273 0.155 1.569 0.802 3.39-0.15 3.886-2.033 3.21-7.21l-0.065-0.494 0.361-0.347q6.378-6.119 4.741-15.933zM3.4 25.42l2.463-2.505c0.201-0.193 0.302-0.429 0.303-0.707s-0.097-0.516-0.296-0.711c-0.199-0.195-0.438-0.29-0.717-0.283s-1.342 0.957-0.701 0.317l-2.491 2.533c-0.191 0.195-0.286 0.429-0.283 0.702s0.101 0.505 0.295 0.697 0.428 0.286 0.701 0.284c0.273-0.002-0.618-8.584 0.697-0.295l0.029-0.029v-0.002zM5.722 22.773l-2.522 2.566q-0.539 0.519-1.087-0.020-0.562-0.553-0.010-1.115l2.494-2.537q0.226-0.245 0.56-0.253t0.572 0.226 0.236 0.567-0.243 0.565l-0.001 0.001zM7.641 25.157l0.001-0.001q0.297-0.288 0.301-0.701t-0.29-0.708-0.708-0.29-0.702 0.301l-4.279 4.279q-0.281 0.291-0.278 0.696t0.29 0.691 0.691 0.29 0.697-0.279l4.276-4.277zM7.743 24.453q-0.003 0.331-0.241 0.561l-0.001 0.001-4.277 4.278q-0.556 0.537-1.105-0.011t-0.010-1.106l4.276-4.277q0.231-0.239 0.562-0.242t0.565 0.231 0.231 0.565zM7.644 29.406q-0.231 0.155-0.527 0.16-0.414 0.007-0.709-0.284t-0.296-0.704 0.294-0.705l1.868-1.901q0.287-0.292 0.697-0.295t0.702 0.284 0.295 0.697-0.284 0.702l-2.041 2.077 0-0.030zM7.844 28.947l1.698-1.728q0.229-0.233 0.227-0.56t-0.236-0.556-0.56-0.227-0.556 0.236l-1.87 1.903q-0.235 0.232-0.235 0.562t0.236 0.562 0.566 0.226 0.558-0.244l0.172-0.181v0.006z"></path>
</svg>
