<?xml version="1.0" encoding="utf-8"?>
<!-- Generator: Adobe Illustrator 22.1.0, SVG Export Plug-In . SVG Version: 6.00 Build 0)  -->
<svg version="1.1" id="图层_1" xmlns="http://www.w3.org/2000/svg" xmlns:xlink="http://www.w3.org/1999/xlink" x="0px" y="0px"
	 viewBox="0 0 16 16" style="enable-background:new 0 0 16 16;" xml:space="preserve">
<path d="M14.5,7.9H9.6c-0.6,0-1,0.4-1,1v3.9c0,0.6,0.4,1,1,1h4.9c0.6,0,1-0.4,1-1V8.9C15.5,8.4,15.1,7.9,14.5,7.9z
	 M14.5,12.8H9.6V8.9h4.9V12.8z"/>
<g>
	<path d="M10.7,14.2h2.9c0.2,0,0.4,0.2,0.4,0.4l0,0c0,0.2-0.2,0.4-0.4,0.4h-2.9c-0.2,0-0.4-0.2-0.4-0.4l0,0
		C10.3,14.4,10.5,14.2,10.7,14.2z"/>
</g>
<g>
	<path d="M6.4,1H1.5c-0.6,0-1,0.4-1,1v3.9c0,0.6,0.4,1,1,1h4.9c0.6,0,1-0.4,1-1V2C7.4,1.4,7,1,6.4,1z M6.4,5.9H1.5V2
		h4.9V5.9z"/>
	<g>
		<path d="M2.7,7.3h2.9C5.8,7.3,6,7.5,6,7.8l0,0C6,8,5.8,8.2,5.5,8.2H2.7C2.4,8.2,2.2,8,2.2,7.8l0,0
			C2.2,7.5,2.4,7.3,2.7,7.3z"/>
	</g>
</g>
<g>
	<path d="M13.2,2.1v3h1V1.6c0,0,0-0.1,0-0.1c0,0,0-0.1,0-0.1c0,0,0-0.1,0-0.1c0,0,0-0.1-0.1-0.1c0,0,0,0-0.1-0.1
		c0,0-0.1,0-0.1,0c0,0-0.1,0-0.1,0c0,0-0.1,0-0.1,0h-3.5v1H13.2z"/>
</g>
<g transform="matrix(-1,0,0,-1,11.35546875,28.465715408325195)">
	<path d="M8.6,14.7v3h1v-3.5c0,0,0-0.1,0-0.1c0,0,0-0.1,0-0.1c0,0,0-0.1,0-0.1s0-0.1-0.1-0.1c0,0,0,0-0.1-0.1
		s-0.1,0-0.1,0c0,0-0.1,0-0.1,0s-0.1,0-0.1,0H5.7v1H8.6z"/>
</g>
</svg>
