<!-- Generated by IcoMoon.io -->
<svg version="1.1" xmlns="http://www.w3.org/2000/svg" width="32" height="32" viewBox="0 0 32 32">
<title>tuiguang</title>
<path fill="#666" d="M9.998 11.124v9.511h-5.464c-0.131 0-0.237-0.106-0.237-0.237v-9.037c0-0.131 0.106-0.237 0.237-0.237h5.464zM12.131 8.99h-7.597c-1.309 0-2.37 1.061-2.37 2.37v9.037c0 1.309 1.061 2.37 2.37 2.37h7.597v-13.778z"></path>
<path fill="#666" opacity="0.2" d="M19.762 5.743v19.953l4.148 1.878v-23.194l-4.148 1.363z"></path>
<path fill="#666" d="M22.986 4.924v22.122l-10.856-5.582v-11.153l10.856-5.387zM23.934 2.21c-0.168 0.001-0.333 0.037-0.486 0.107l-13.452 6.673v13.778l13.452 6.916c0.785 0.358 1.677-0.216 1.677-1.079v-25.209c0-0.655-0.531-1.185-1.185-1.185h-0.006z"></path>
<path fill="#666" d="M27.467 12.611c0.131 0 0.237 0.106 0.237 0.237v6.4c0 0.131-0.106 0.237-0.237 0.237h-2.311v-6.874h2.311zM27.467 10.478h-4.444v11.141h4.444c1.309 0 2.37-1.061 2.37-2.37v-6.4c0-1.309-1.061-2.37-2.37-2.37zM7.864 22.768v4.231c0 0.363-0.295 0.658-0.658 0.658h-0.45c-0.363 0-0.658-0.294-0.658-0.658v-4.231h1.778zM10.009 20.635h-6.050v6.364c0 1.541 1.25 2.791 2.791 2.791h0.45c1.541 0 2.791-1.25 2.791-2.791v-6.364h0.018z"></path>
</svg>
